<?xml version="1.0" encoding="utf-8"?>
<!-- Generator: Adobe Illustrator 16.0.0, SVG Export Plug-In . SVG Version: 6.00 Build 0)  -->
<!DOCTYPE svg PUBLIC "-//W3C//DTD SVG 1.1//EN" "http://www.w3.org/Graphics/SVG/1.1/DTD/svg11.dtd">
<svg version="1.1" id="Layer_1" xmlns="http://www.w3.org/2000/svg" xmlns:xlink="http://www.w3.org/1999/xlink" x="0px" y="0px"
	 width="1280px" height="800px" viewBox="43 9.546 1280 800" enable-background="new 43 9.546 1280 800" xml:space="preserve">
<g>
	<g>
		
			<radialGradient id="SVGID_1_" cx="-5645.1826" cy="6564.5386" r="1189.4271" gradientTransform="matrix(1 0 0 -1 5318.3999 6247.0225)" gradientUnits="userSpaceOnUse">
			<stop  offset="0" style="stop-color:#3399FF"/>
			<stop  offset="0.4041" style="stop-color:#329BFE"/>
			<stop  offset="0.5731" style="stop-color:#2EA2FA"/>
			<stop  offset="0.6981" style="stop-color:#28AFF4"/>
			<stop  offset="0.8016" style="stop-color:#1FC0EB"/>
			<stop  offset="0.8917" style="stop-color:#14D7E0"/>
			<stop  offset="0.9711" style="stop-color:#06F3D2"/>
			<stop  offset="1" style="stop-color:#00FFCC"/>
		</radialGradient>
		<path fill="url(#SVGID_1_)" d="M862.647-317.512c0,656.892-532.532,1189.422-1189.426,1189.422
			c-656.896,0-1189.433-532.53-1189.433-1189.422c0-656.905,532.536-1189.429,1189.433-1189.429
			C330.116-1506.941,862.647-974.417,862.647-317.512z"/>
	</g>
	<g>
		
			<radialGradient id="SVGID_2_" cx="-5645.1816" cy="6564.5386" r="1154.7837" gradientTransform="matrix(1 0 0 -1 5318.3999 6247.0225)" gradientUnits="userSpaceOnUse">
			<stop  offset="0" style="stop-color:#3399FF"/>
			<stop  offset="0.4041" style="stop-color:#329BFE"/>
			<stop  offset="0.5731" style="stop-color:#2EA2FA"/>
			<stop  offset="0.6981" style="stop-color:#28AFF4"/>
			<stop  offset="0.8016" style="stop-color:#1FC0EB"/>
			<stop  offset="0.8917" style="stop-color:#14D7E0"/>
			<stop  offset="0.9711" style="stop-color:#06F3D2"/>
			<stop  offset="1" style="stop-color:#00FFCC"/>
		</radialGradient>
		<path fill="url(#SVGID_2_)" d="M828.004-317.512c0,637.757-517.021,1154.777-1154.783,1154.777
			c-637.764,0-1154.789-517.02-1154.789-1154.777c0-637.771,517.025-1154.785,1154.789-1154.785
			C310.983-1472.297,828.004-955.283,828.004-317.512z"/>
	</g>
	<g>
		
			<radialGradient id="SVGID_3_" cx="-5645.1816" cy="6564.5376" r="1121.1494" gradientTransform="matrix(1 0 0 -1 5318.3999 6247.0225)" gradientUnits="userSpaceOnUse">
			<stop  offset="0" style="stop-color:#3399FF"/>
			<stop  offset="0.4041" style="stop-color:#329BFE"/>
			<stop  offset="0.5731" style="stop-color:#2EA2FA"/>
			<stop  offset="0.6981" style="stop-color:#28AFF4"/>
			<stop  offset="0.8016" style="stop-color:#1FC0EB"/>
			<stop  offset="0.8917" style="stop-color:#14D7E0"/>
			<stop  offset="0.9711" style="stop-color:#06F3D2"/>
			<stop  offset="1" style="stop-color:#00FFCC"/>
		</radialGradient>
		<path fill="url(#SVGID_3_)" d="M794.37-317.512c0,619.183-501.962,1121.145-1121.148,1121.145
			c-619.188,0-1121.154-501.961-1121.154-1121.145c0-619.196,501.966-1121.151,1121.154-1121.151
			C292.407-1438.663,794.37-936.708,794.37-317.512z"/>
	</g>
	<g>
		
			<radialGradient id="SVGID_4_" cx="-5645.1816" cy="6564.5386" r="1088.4945" gradientTransform="matrix(1 0 0 -1 5318.3999 6247.0225)" gradientUnits="userSpaceOnUse">
			<stop  offset="0" style="stop-color:#3399FF"/>
			<stop  offset="0.4041" style="stop-color:#329BFE"/>
			<stop  offset="0.5731" style="stop-color:#2EA2FA"/>
			<stop  offset="0.6981" style="stop-color:#28AFF4"/>
			<stop  offset="0.8016" style="stop-color:#1FC0EB"/>
			<stop  offset="0.8917" style="stop-color:#14D7E0"/>
			<stop  offset="0.9711" style="stop-color:#06F3D2"/>
			<stop  offset="1" style="stop-color:#00FFCC"/>
		</radialGradient>
		<path fill="url(#SVGID_4_)" d="M761.715-317.512c0,601.147-487.342,1088.488-1088.494,1088.488
			c-601.153,0-1088.5-487.341-1088.5-1088.488c0-601.161,487.346-1088.496,1088.5-1088.496
			C274.373-1406.008,761.715-918.673,761.715-317.512z"/>
	</g>
	<g>
		
			<radialGradient id="SVGID_5_" cx="-5645.1816" cy="6564.5386" r="1056.7904" gradientTransform="matrix(1 0 0 -1 5318.3999 6247.0225)" gradientUnits="userSpaceOnUse">
			<stop  offset="0" style="stop-color:#3399FF"/>
			<stop  offset="0.4041" style="stop-color:#329BFE"/>
			<stop  offset="0.5731" style="stop-color:#2EA2FA"/>
			<stop  offset="0.6981" style="stop-color:#28AFF4"/>
			<stop  offset="0.8016" style="stop-color:#1FC0EB"/>
			<stop  offset="0.8917" style="stop-color:#14D7E0"/>
			<stop  offset="0.9711" style="stop-color:#06F3D2"/>
			<stop  offset="1" style="stop-color:#00FFCC"/>
		</radialGradient>
		<path fill="url(#SVGID_5_)" d="M730.011-317.512c0,583.64-473.147,1056.785-1056.79,1056.785
			c-583.644,0-1056.795-473.146-1056.795-1056.785c0-583.651,473.151-1056.792,1056.795-1056.792
			C256.863-1374.304,730.011-901.163,730.011-317.512z"/>
	</g>
	<g>
		
			<radialGradient id="SVGID_6_" cx="-5645.1816" cy="6564.5376" r="1026.0104" gradientTransform="matrix(1 0 0 -1 5318.3999 6247.0225)" gradientUnits="userSpaceOnUse">
			<stop  offset="0" style="stop-color:#3399FF"/>
			<stop  offset="0.4041" style="stop-color:#329BFE"/>
			<stop  offset="0.5731" style="stop-color:#2EA2FA"/>
			<stop  offset="0.6981" style="stop-color:#28AFF4"/>
			<stop  offset="0.8016" style="stop-color:#1FC0EB"/>
			<stop  offset="0.8917" style="stop-color:#14D7E0"/>
			<stop  offset="0.9711" style="stop-color:#06F3D2"/>
			<stop  offset="1" style="stop-color:#00FFCC"/>
		</radialGradient>
		<path fill="url(#SVGID_6_)" d="M699.23-317.512c0,566.642-459.367,1026.006-1026.009,1026.006
			c-566.646,0-1026.015-459.364-1026.015-1026.006c0-566.652,459.371-1026.012,1026.015-1026.012
			C239.864-1343.524,699.23-884.164,699.23-317.512z"/>
	</g>
	<g>
		
			<radialGradient id="SVGID_7_" cx="-5645.1807" cy="6564.5386" r="996.126" gradientTransform="matrix(1 0 0 -1 5318.3999 6247.0225)" gradientUnits="userSpaceOnUse">
			<stop  offset="0" style="stop-color:#3399FF"/>
			<stop  offset="0.4041" style="stop-color:#329BFE"/>
			<stop  offset="0.5731" style="stop-color:#2EA2FA"/>
			<stop  offset="0.6981" style="stop-color:#28AFF4"/>
			<stop  offset="0.8016" style="stop-color:#1FC0EB"/>
			<stop  offset="0.8917" style="stop-color:#14D7E0"/>
			<stop  offset="0.9711" style="stop-color:#06F3D2"/>
			<stop  offset="1" style="stop-color:#00FFCC"/>
		</radialGradient>
		<path fill="url(#SVGID_7_)" d="M669.347-317.512c0,550.138-445.987,996.121-996.125,996.121
			c-550.14,0-996.131-445.984-996.131-996.121c0-550.147,445.991-996.128,996.131-996.128
			C223.36-1313.64,669.347-867.659,669.347-317.512z"/>
	</g>
	<g>
		
			<radialGradient id="SVGID_8_" cx="-5645.1821" cy="6564.5376" r="967.1135" gradientTransform="matrix(1 0 0 -1 5318.3999 6247.0225)" gradientUnits="userSpaceOnUse">
			<stop  offset="0" style="stop-color:#3399FF"/>
			<stop  offset="0.4041" style="stop-color:#329BFE"/>
			<stop  offset="0.5731" style="stop-color:#2EA2FA"/>
			<stop  offset="0.6981" style="stop-color:#28AFF4"/>
			<stop  offset="0.8016" style="stop-color:#1FC0EB"/>
			<stop  offset="0.8917" style="stop-color:#14D7E0"/>
			<stop  offset="0.9711" style="stop-color:#06F3D2"/>
			<stop  offset="1" style="stop-color:#00FFCC"/>
		</radialGradient>
		<path fill="url(#SVGID_8_)" d="M640.333-317.512c0,534.112-432.997,967.109-967.111,967.109
			c-534.117,0-967.118-432.997-967.118-967.109c0-534.124,433.001-967.115,967.118-967.115
			C207.336-1284.627,640.333-851.636,640.333-317.512z"/>
	</g>
	<g>
		
			<radialGradient id="SVGID_9_" cx="-5645.1816" cy="6564.5366" r="938.9453" gradientTransform="matrix(1 0 0 -1 5318.3999 6247.0225)" gradientUnits="userSpaceOnUse">
			<stop  offset="0" style="stop-color:#3399FF"/>
			<stop  offset="0.4041" style="stop-color:#329BFE"/>
			<stop  offset="0.5731" style="stop-color:#2EA2FA"/>
			<stop  offset="0.6981" style="stop-color:#28AFF4"/>
			<stop  offset="0.8016" style="stop-color:#1FC0EB"/>
			<stop  offset="0.8917" style="stop-color:#14D7E0"/>
			<stop  offset="0.9711" style="stop-color:#06F3D2"/>
			<stop  offset="1" style="stop-color:#00FFCC"/>
		</radialGradient>
		<path fill="url(#SVGID_9_)" d="M612.165-317.512c0,518.558-420.385,938.941-938.943,938.941
			c-518.56,0-938.949-420.386-938.949-938.941c0-518.566,420.389-938.946,938.949-938.946
			C191.78-1256.458,612.165-836.078,612.165-317.512z"/>
	</g>
	<g>
		
			<radialGradient id="SVGID_10_" cx="-5645.1816" cy="6564.5366" r="911.597" gradientTransform="matrix(1 0 0 -1 5318.3999 6247.0225)" gradientUnits="userSpaceOnUse">
			<stop  offset="0" style="stop-color:#3399FF"/>
			<stop  offset="0.4041" style="stop-color:#329BFE"/>
			<stop  offset="0.5731" style="stop-color:#2EA2FA"/>
			<stop  offset="0.6981" style="stop-color:#28AFF4"/>
			<stop  offset="0.8016" style="stop-color:#1FC0EB"/>
			<stop  offset="0.8917" style="stop-color:#14D7E0"/>
			<stop  offset="0.9711" style="stop-color:#06F3D2"/>
			<stop  offset="1" style="stop-color:#00FFCC"/>
		</radialGradient>
		<path fill="url(#SVGID_10_)" d="M584.817-317.512c0,503.453-408.141,911.594-911.596,911.594
			c-503.457,0-911.601-408.141-911.601-911.594c0-503.462,408.145-911.598,911.601-911.598
			C176.676-1229.11,584.817-820.974,584.817-317.512z"/>
	</g>
	<g>
		
			<radialGradient id="SVGID_11_" cx="-5645.1807" cy="6564.5366" r="885.046" gradientTransform="matrix(1 0 0 -1 5318.3999 6247.0225)" gradientUnits="userSpaceOnUse">
			<stop  offset="0" style="stop-color:#3399FF"/>
			<stop  offset="0.4041" style="stop-color:#329BFE"/>
			<stop  offset="0.5731" style="stop-color:#2EA2FA"/>
			<stop  offset="0.6981" style="stop-color:#28AFF4"/>
			<stop  offset="0.8016" style="stop-color:#1FC0EB"/>
			<stop  offset="0.8917" style="stop-color:#14D7E0"/>
			<stop  offset="0.9711" style="stop-color:#06F3D2"/>
			<stop  offset="1" style="stop-color:#00FFCC"/>
		</radialGradient>
		<path fill="url(#SVGID_11_)" d="M558.266-317.512c0,488.789-396.253,885.043-885.045,885.043
			c-488.793,0-885.049-396.254-885.049-885.043c0-488.798,396.256-885.047,885.049-885.047
			C162.013-1202.559,558.266-806.31,558.266-317.512z"/>
	</g>
	<g>
		
			<radialGradient id="SVGID_12_" cx="-5645.1812" cy="6564.5366" r="859.2682" gradientTransform="matrix(1 0 0 -1 5318.3999 6247.0225)" gradientUnits="userSpaceOnUse">
			<stop  offset="0" style="stop-color:#3399FF"/>
			<stop  offset="0.4041" style="stop-color:#329BFE"/>
			<stop  offset="0.5731" style="stop-color:#2EA2FA"/>
			<stop  offset="0.6981" style="stop-color:#28AFF4"/>
			<stop  offset="0.8016" style="stop-color:#1FC0EB"/>
			<stop  offset="0.8917" style="stop-color:#14D7E0"/>
			<stop  offset="0.9711" style="stop-color:#06F3D2"/>
			<stop  offset="1" style="stop-color:#00FFCC"/>
		</radialGradient>
		<path fill="url(#SVGID_12_)" d="M532.488-317.512c0,474.553-384.712,859.266-859.267,859.266
			c-474.556,0-859.271-384.713-859.271-859.266c0-474.562,384.715-859.269,859.271-859.269
			C147.776-1176.781,532.488-792.074,532.488-317.512z"/>
	</g>
	<g>
		
			<radialGradient id="SVGID_13_" cx="-5645.1807" cy="6564.5376" r="834.2407" gradientTransform="matrix(1 0 0 -1 5318.3999 6247.0225)" gradientUnits="userSpaceOnUse">
			<stop  offset="0" style="stop-color:#3399FF"/>
			<stop  offset="0.4041" style="stop-color:#329BFE"/>
			<stop  offset="0.5731" style="stop-color:#2EA2FA"/>
			<stop  offset="0.6981" style="stop-color:#28AFF4"/>
			<stop  offset="0.8016" style="stop-color:#1FC0EB"/>
			<stop  offset="0.8917" style="stop-color:#14D7E0"/>
			<stop  offset="0.9711" style="stop-color:#06F3D2"/>
			<stop  offset="1" style="stop-color:#00FFCC"/>
		</radialGradient>
		<path fill="url(#SVGID_13_)" d="M507.461-317.512c0,460.73-373.507,834.236-834.24,834.236
			c-460.734,0-834.244-373.506-834.244-834.236c0-460.739,373.51-834.242,834.244-834.242
			C133.954-1151.754,507.461-778.251,507.461-317.512z"/>
	</g>
	<g>
		
			<radialGradient id="SVGID_14_" cx="-5645.1807" cy="6564.5366" r="809.9424" gradientTransform="matrix(1 0 0 -1 5318.3999 6247.0225)" gradientUnits="userSpaceOnUse">
			<stop  offset="0" style="stop-color:#3399FF"/>
			<stop  offset="0.4041" style="stop-color:#329BFE"/>
			<stop  offset="0.5731" style="stop-color:#2EA2FA"/>
			<stop  offset="0.6981" style="stop-color:#28AFF4"/>
			<stop  offset="0.8016" style="stop-color:#1FC0EB"/>
			<stop  offset="0.8917" style="stop-color:#14D7E0"/>
			<stop  offset="0.9711" style="stop-color:#06F3D2"/>
			<stop  offset="1" style="stop-color:#00FFCC"/>
		</radialGradient>
		<path fill="url(#SVGID_14_)" d="M483.163-317.512c0,447.312-362.627,809.939-809.94,809.939
			c-447.315,0-809.946-362.628-809.946-809.939c0-447.32,362.631-809.943,809.946-809.943
			C120.535-1127.455,483.163-764.832,483.163-317.512z"/>
	</g>
	<g>
		
			<radialGradient id="SVGID_15_" cx="-5645.1812" cy="6564.5366" r="786.3523" gradientTransform="matrix(1 0 0 -1 5318.3999 6247.0225)" gradientUnits="userSpaceOnUse">
			<stop  offset="0" style="stop-color:#3399FF"/>
			<stop  offset="0.4041" style="stop-color:#329BFE"/>
			<stop  offset="0.5731" style="stop-color:#2EA2FA"/>
			<stop  offset="0.6981" style="stop-color:#28AFF4"/>
			<stop  offset="0.8016" style="stop-color:#1FC0EB"/>
			<stop  offset="0.8917" style="stop-color:#14D7E0"/>
			<stop  offset="0.9711" style="stop-color:#06F3D2"/>
			<stop  offset="1" style="stop-color:#00FFCC"/>
		</radialGradient>
		<path fill="url(#SVGID_15_)" d="M459.572-317.512c0,434.283-352.066,786.349-786.351,786.349
			c-434.286,0-786.355-352.065-786.355-786.349c0-434.291,352.069-786.353,786.355-786.353
			C107.506-1103.865,459.572-751.803,459.572-317.512z"/>
	</g>
	<g>
		
			<radialGradient id="SVGID_16_" cx="-5645.1812" cy="6564.5366" r="763.449" gradientTransform="matrix(1 0 0 -1 5318.3999 6247.0225)" gradientUnits="userSpaceOnUse">
			<stop  offset="0" style="stop-color:#3399FF"/>
			<stop  offset="0.4041" style="stop-color:#329BFE"/>
			<stop  offset="0.5731" style="stop-color:#2EA2FA"/>
			<stop  offset="0.6981" style="stop-color:#28AFF4"/>
			<stop  offset="0.8016" style="stop-color:#1FC0EB"/>
			<stop  offset="0.8917" style="stop-color:#14D7E0"/>
			<stop  offset="0.9711" style="stop-color:#06F3D2"/>
			<stop  offset="1" style="stop-color:#00FFCC"/>
		</radialGradient>
		<path fill="url(#SVGID_16_)" d="M436.668-317.512c0,421.634-341.812,763.445-763.447,763.445
			c-421.637,0-763.452-341.812-763.452-763.445c0-421.642,341.814-763.45,763.452-763.45
			C94.857-1080.962,436.668-739.154,436.668-317.512z"/>
	</g>
	<g>
		
			<radialGradient id="SVGID_17_" cx="-5645.1797" cy="6564.5366" r="741.212" gradientTransform="matrix(1 0 0 -1 5318.3999 6247.0225)" gradientUnits="userSpaceOnUse">
			<stop  offset="0" style="stop-color:#3399FF"/>
			<stop  offset="0.4041" style="stop-color:#329BFE"/>
			<stop  offset="0.5731" style="stop-color:#2EA2FA"/>
			<stop  offset="0.6981" style="stop-color:#28AFF4"/>
			<stop  offset="0.8016" style="stop-color:#1FC0EB"/>
			<stop  offset="0.8917" style="stop-color:#14D7E0"/>
			<stop  offset="0.9711" style="stop-color:#06F3D2"/>
			<stop  offset="1" style="stop-color:#00FFCC"/>
		</radialGradient>
		<path fill="url(#SVGID_17_)" d="M414.433-317.512c0,409.354-331.856,741.208-741.211,741.208
			c-409.356,0-741.215-331.854-741.215-741.208c0-409.361,331.859-741.213,741.215-741.213
			C82.577-1058.725,414.433-726.873,414.433-317.512z"/>
	</g>
	<g>
		
			<radialGradient id="SVGID_18_" cx="-5645.1802" cy="6564.5376" r="719.6233" gradientTransform="matrix(1 0 0 -1 5318.3999 6247.0225)" gradientUnits="userSpaceOnUse">
			<stop  offset="0" style="stop-color:#3399FF"/>
			<stop  offset="0.4041" style="stop-color:#329BFE"/>
			<stop  offset="0.5731" style="stop-color:#2EA2FA"/>
			<stop  offset="0.6981" style="stop-color:#28AFF4"/>
			<stop  offset="0.8016" style="stop-color:#1FC0EB"/>
			<stop  offset="0.8917" style="stop-color:#14D7E0"/>
			<stop  offset="0.9711" style="stop-color:#06F3D2"/>
			<stop  offset="1" style="stop-color:#00FFCC"/>
		</radialGradient>
		<path fill="url(#SVGID_18_)" d="M392.844-317.512c0,397.431-322.19,719.619-719.623,719.619
			c-397.434,0-719.626-322.188-719.626-719.619c0-397.438,322.193-719.625,719.626-719.625
			C70.654-1037.137,392.844-714.95,392.844-317.512z"/>
	</g>
	<g>
		
			<radialGradient id="SVGID_19_" cx="-5645.1812" cy="6564.5366" r="698.6638" gradientTransform="matrix(1 0 0 -1 5318.3999 6247.0225)" gradientUnits="userSpaceOnUse">
			<stop  offset="0" style="stop-color:#3399FF"/>
			<stop  offset="0.4041" style="stop-color:#329BFE"/>
			<stop  offset="0.5731" style="stop-color:#2EA2FA"/>
			<stop  offset="0.6981" style="stop-color:#28AFF4"/>
			<stop  offset="0.8016" style="stop-color:#1FC0EB"/>
			<stop  offset="0.8917" style="stop-color:#14D7E0"/>
			<stop  offset="0.9711" style="stop-color:#06F3D2"/>
			<stop  offset="1" style="stop-color:#00FFCC"/>
		</radialGradient>
		<path fill="url(#SVGID_19_)" d="M371.883-317.512c0,385.855-312.805,698.66-698.662,698.66
			c-385.858,0-698.667-312.805-698.667-698.66c0-385.862,312.809-698.665,698.667-698.665
			C59.078-1016.177,371.883-703.374,371.883-317.512z"/>
	</g>
	<g>
		
			<radialGradient id="SVGID_20_" cx="-5645.1797" cy="6564.5366" r="678.3139" gradientTransform="matrix(1 0 0 -1 5318.3999 6247.0225)" gradientUnits="userSpaceOnUse">
			<stop  offset="0" style="stop-color:#3399FF"/>
			<stop  offset="0.4041" style="stop-color:#329BFE"/>
			<stop  offset="0.5731" style="stop-color:#2EA2FA"/>
			<stop  offset="0.6981" style="stop-color:#28AFF4"/>
			<stop  offset="0.8016" style="stop-color:#1FC0EB"/>
			<stop  offset="0.8917" style="stop-color:#14D7E0"/>
			<stop  offset="0.9711" style="stop-color:#06F3D2"/>
			<stop  offset="1" style="stop-color:#00FFCC"/>
		</radialGradient>
		<path fill="url(#SVGID_20_)" d="M351.536-317.512c0,374.617-303.696,678.31-678.313,678.31
			c-374.619,0-678.317-303.692-678.317-678.31c0-374.623,303.698-678.315,678.317-678.315
			C47.839-995.827,351.536-692.135,351.536-317.512z"/>
	</g>
	<g>
		
			<radialGradient id="SVGID_21_" cx="-5645.1807" cy="6564.5376" r="658.5569" gradientTransform="matrix(1 0 0 -1 5318.3999 6247.0225)" gradientUnits="userSpaceOnUse">
			<stop  offset="0" style="stop-color:#3399FF"/>
			<stop  offset="0.4041" style="stop-color:#329BFE"/>
			<stop  offset="0.5731" style="stop-color:#2EA2FA"/>
			<stop  offset="0.6981" style="stop-color:#28AFF4"/>
			<stop  offset="0.8016" style="stop-color:#1FC0EB"/>
			<stop  offset="0.8917" style="stop-color:#14D7E0"/>
			<stop  offset="0.9711" style="stop-color:#06F3D2"/>
			<stop  offset="1" style="stop-color:#00FFCC"/>
		</radialGradient>
		<path fill="url(#SVGID_21_)" d="M331.778-317.512c0,363.706-294.85,658.552-658.557,658.552
			c-363.708,0-658.56-294.846-658.56-658.552c0-363.712,294.852-658.558,658.56-658.558
			C36.928-976.07,331.778-681.224,331.778-317.512z"/>
	</g>
	<g>
		
			<radialGradient id="SVGID_22_" cx="-5645.1797" cy="6564.5366" r="639.3761" gradientTransform="matrix(1 0 0 -1 5318.3999 6247.0225)" gradientUnits="userSpaceOnUse">
			<stop  offset="0" style="stop-color:#3399FF"/>
			<stop  offset="0.4041" style="stop-color:#329BFE"/>
			<stop  offset="0.5731" style="stop-color:#2EA2FA"/>
			<stop  offset="0.6981" style="stop-color:#28AFF4"/>
			<stop  offset="0.8016" style="stop-color:#1FC0EB"/>
			<stop  offset="0.8917" style="stop-color:#14D7E0"/>
			<stop  offset="0.9711" style="stop-color:#06F3D2"/>
			<stop  offset="1" style="stop-color:#00FFCC"/>
		</radialGradient>
		<path fill="url(#SVGID_22_)" d="M312.597-317.512c0,353.112-286.262,639.373-639.375,639.373
			c-353.115,0-639.379-286.261-639.379-639.373c0-353.118,286.264-639.377,639.379-639.377
			C26.335-956.889,312.597-670.63,312.597-317.512z"/>
	</g>
	<g>
		
			<radialGradient id="SVGID_23_" cx="-5645.1807" cy="6564.5366" r="620.7533" gradientTransform="matrix(1 0 0 -1 5318.3999 6247.0225)" gradientUnits="userSpaceOnUse">
			<stop  offset="0" style="stop-color:#3399FF"/>
			<stop  offset="0.4041" style="stop-color:#329BFE"/>
			<stop  offset="0.5731" style="stop-color:#2EA2FA"/>
			<stop  offset="0.6981" style="stop-color:#28AFF4"/>
			<stop  offset="0.8016" style="stop-color:#1FC0EB"/>
			<stop  offset="0.8917" style="stop-color:#14D7E0"/>
			<stop  offset="0.9711" style="stop-color:#06F3D2"/>
			<stop  offset="1" style="stop-color:#00FFCC"/>
		</radialGradient>
		<path fill="url(#SVGID_23_)" d="M293.974-317.512c0,342.828-277.924,620.75-620.753,620.75
			c-342.83,0-620.756-277.921-620.756-620.75c0-342.833,277.926-620.754,620.756-620.754
			C16.05-938.266,293.974-660.345,293.974-317.512z"/>
	</g>
	<g>
		
			<radialGradient id="SVGID_24_" cx="-5645.1807" cy="6564.5366" r="602.6732" gradientTransform="matrix(1 0 0 -1 5318.3999 6247.0225)" gradientUnits="userSpaceOnUse">
			<stop  offset="0" style="stop-color:#3399FF"/>
			<stop  offset="0.4041" style="stop-color:#329BFE"/>
			<stop  offset="0.5731" style="stop-color:#2EA2FA"/>
			<stop  offset="0.6981" style="stop-color:#28AFF4"/>
			<stop  offset="0.8016" style="stop-color:#1FC0EB"/>
			<stop  offset="0.8917" style="stop-color:#14D7E0"/>
			<stop  offset="0.9711" style="stop-color:#06F3D2"/>
			<stop  offset="1" style="stop-color:#00FFCC"/>
		</radialGradient>
		<path fill="url(#SVGID_24_)" d="M275.894-317.512c0,332.842-269.829,602.67-602.673,602.67
			c-332.845,0-602.676-269.828-602.676-602.67c0-332.848,269.832-602.674,602.676-602.674
			C6.065-920.186,275.894-650.36,275.894-317.512z"/>
	</g>
	<g>
		
			<radialGradient id="SVGID_25_" cx="-5645.1807" cy="6564.5366" r="585.12" gradientTransform="matrix(1 0 0 -1 5318.3999 6247.0225)" gradientUnits="userSpaceOnUse">
			<stop  offset="0" style="stop-color:#3399FF"/>
			<stop  offset="0.4041" style="stop-color:#329BFE"/>
			<stop  offset="0.5731" style="stop-color:#2EA2FA"/>
			<stop  offset="0.6981" style="stop-color:#28AFF4"/>
			<stop  offset="0.8016" style="stop-color:#1FC0EB"/>
			<stop  offset="0.8917" style="stop-color:#14D7E0"/>
			<stop  offset="0.9711" style="stop-color:#06F3D2"/>
			<stop  offset="1" style="stop-color:#00FFCC"/>
		</radialGradient>
		<path fill="url(#SVGID_25_)" d="M258.34-317.512c0,323.148-261.97,585.116-585.119,585.116
			c-323.15,0-585.123-261.968-585.123-585.116c0-323.153,261.972-585.121,585.123-585.121
			C-3.629-902.633,258.34-640.665,258.34-317.512z"/>
	</g>
	<g>
		
			<radialGradient id="SVGID_26_" cx="-5645.1807" cy="6564.5366" r="568.0773" gradientTransform="matrix(1 0 0 -1 5318.3999 6247.0225)" gradientUnits="userSpaceOnUse">
			<stop  offset="0" style="stop-color:#3399FF"/>
			<stop  offset="0.4041" style="stop-color:#329BFE"/>
			<stop  offset="0.5731" style="stop-color:#2EA2FA"/>
			<stop  offset="0.6981" style="stop-color:#28AFF4"/>
			<stop  offset="0.8016" style="stop-color:#1FC0EB"/>
			<stop  offset="0.8917" style="stop-color:#14D7E0"/>
			<stop  offset="0.9711" style="stop-color:#06F3D2"/>
			<stop  offset="1" style="stop-color:#00FFCC"/>
		</radialGradient>
		<path fill="url(#SVGID_26_)" d="M241.298-317.512c0,313.736-254.339,568.074-568.077,568.074
			c-313.738,0-568.08-254.338-568.08-568.074c0-313.741,254.342-568.078,568.08-568.078
			C-13.042-885.59,241.298-631.253,241.298-317.512z"/>
	</g>
	<g>
		
			<radialGradient id="SVGID_27_" cx="-5645.1807" cy="6564.5366" r="551.5314" gradientTransform="matrix(1 0 0 -1 5318.3999 6247.0225)" gradientUnits="userSpaceOnUse">
			<stop  offset="0" style="stop-color:#3399FF"/>
			<stop  offset="0.4041" style="stop-color:#329BFE"/>
			<stop  offset="0.5731" style="stop-color:#2EA2FA"/>
			<stop  offset="0.6981" style="stop-color:#28AFF4"/>
			<stop  offset="0.8016" style="stop-color:#1FC0EB"/>
			<stop  offset="0.8917" style="stop-color:#14D7E0"/>
			<stop  offset="0.9711" style="stop-color:#06F3D2"/>
			<stop  offset="1" style="stop-color:#00FFCC"/>
		</radialGradient>
		<path fill="url(#SVGID_27_)" d="M224.752-317.512c0,304.598-246.932,551.528-551.531,551.528
			c-304.6,0-551.534-246.93-551.534-551.528c0-304.603,246.934-551.532,551.534-551.532
			C-22.18-869.044,224.752-622.115,224.752-317.512z"/>
	</g>
	<g>
		
			<radialGradient id="SVGID_28_" cx="-5645.1807" cy="6564.5366" r="535.4672" gradientTransform="matrix(1 0 0 -1 5318.3999 6247.0225)" gradientUnits="userSpaceOnUse">
			<stop  offset="0" style="stop-color:#3399FF"/>
			<stop  offset="0.4041" style="stop-color:#329BFE"/>
			<stop  offset="0.5731" style="stop-color:#2EA2FA"/>
			<stop  offset="0.6981" style="stop-color:#28AFF4"/>
			<stop  offset="0.8016" style="stop-color:#1FC0EB"/>
			<stop  offset="0.8917" style="stop-color:#14D7E0"/>
			<stop  offset="0.9711" style="stop-color:#06F3D2"/>
			<stop  offset="1" style="stop-color:#00FFCC"/>
		</radialGradient>
		<path fill="url(#SVGID_28_)" d="M208.688-317.512c0,295.727-239.739,535.465-535.467,535.465s-535.47-239.738-535.47-535.465
			c0-295.73,239.742-535.468,535.47-535.468S208.688-613.242,208.688-317.512z"/>
	</g>
	<g>
		
			<radialGradient id="SVGID_29_" cx="-5645.1807" cy="6564.5366" r="519.8712" gradientTransform="matrix(1 0 0 -1 5318.3999 6247.0225)" gradientUnits="userSpaceOnUse">
			<stop  offset="0" style="stop-color:#3399FF"/>
			<stop  offset="0.4041" style="stop-color:#329BFE"/>
			<stop  offset="0.5731" style="stop-color:#2EA2FA"/>
			<stop  offset="0.6981" style="stop-color:#28AFF4"/>
			<stop  offset="0.8016" style="stop-color:#1FC0EB"/>
			<stop  offset="0.8917" style="stop-color:#14D7E0"/>
			<stop  offset="0.9711" style="stop-color:#06F3D2"/>
			<stop  offset="1" style="stop-color:#00FFCC"/>
		</radialGradient>
		<path fill="url(#SVGID_29_)" d="M193.092-317.512c0,287.113-232.756,519.869-519.871,519.869
			c-287.115,0-519.874-232.756-519.874-519.869c0-287.117,232.759-519.872,519.874-519.872
			C-39.665-837.384,193.092-604.629,193.092-317.512z"/>
	</g>
	<g>
		
			<radialGradient id="SVGID_30_" cx="-5645.1807" cy="6564.5356" r="504.7301" gradientTransform="matrix(1 0 0 -1 5318.3999 6247.0225)" gradientUnits="userSpaceOnUse">
			<stop  offset="0" style="stop-color:#3399FF"/>
			<stop  offset="0.4041" style="stop-color:#329BFE"/>
			<stop  offset="0.5731" style="stop-color:#2EA2FA"/>
			<stop  offset="0.6981" style="stop-color:#28AFF4"/>
			<stop  offset="0.8016" style="stop-color:#1FC0EB"/>
			<stop  offset="0.8917" style="stop-color:#14D7E0"/>
			<stop  offset="0.9711" style="stop-color:#06F3D2"/>
			<stop  offset="1" style="stop-color:#00FFCC"/>
		</radialGradient>
		<path fill="url(#SVGID_30_)" d="M177.95-317.512c0,278.751-225.977,504.728-504.729,504.728S-831.511-38.761-831.511-317.512
			c0-278.754,225.98-504.73,504.732-504.73S177.95-596.266,177.95-317.512z"/>
	</g>
	<g>
		
			<radialGradient id="SVGID_31_" cx="-5645.1797" cy="6564.5366" r="490.0287" gradientTransform="matrix(1 0 0 -1 5318.3999 6247.0225)" gradientUnits="userSpaceOnUse">
			<stop  offset="0" style="stop-color:#3399FF"/>
			<stop  offset="0.4041" style="stop-color:#329BFE"/>
			<stop  offset="0.5731" style="stop-color:#2EA2FA"/>
			<stop  offset="0.6981" style="stop-color:#28AFF4"/>
			<stop  offset="0.8016" style="stop-color:#1FC0EB"/>
			<stop  offset="0.8917" style="stop-color:#14D7E0"/>
			<stop  offset="0.9711" style="stop-color:#06F3D2"/>
			<stop  offset="1" style="stop-color:#00FFCC"/>
		</radialGradient>
		<path fill="url(#SVGID_31_)" d="M163.25-317.512c0,270.632-219.396,490.026-490.028,490.026
			c-270.632,0-490.032-219.394-490.032-490.026c0-270.635,219.398-490.029,490.031-490.029
			C-56.146-807.541,163.25-588.147,163.25-317.512z"/>
	</g>
	<g>
		
			<radialGradient id="SVGID_32_" cx="-5645.1797" cy="6564.5347" r="475.757" gradientTransform="matrix(1 0 0 -1 5318.3999 6247.0225)" gradientUnits="userSpaceOnUse">
			<stop  offset="0" style="stop-color:#3399FF"/>
			<stop  offset="0.4041" style="stop-color:#329BFE"/>
			<stop  offset="0.5731" style="stop-color:#2EA2FA"/>
			<stop  offset="0.6981" style="stop-color:#28AFF4"/>
			<stop  offset="0.8016" style="stop-color:#1FC0EB"/>
			<stop  offset="0.8917" style="stop-color:#14D7E0"/>
			<stop  offset="0.9711" style="stop-color:#06F3D2"/>
			<stop  offset="1" style="stop-color:#00FFCC"/>
		</radialGradient>
		<circle fill="url(#SVGID_32_)" cx="-326.78" cy="-317.512" r="475.757"/>
	</g>
	<g>
		
			<radialGradient id="SVGID_33_" cx="-5645.1797" cy="6564.5347" r="461.9003" gradientTransform="matrix(1 0 0 -1 5318.3999 6247.0225)" gradientUnits="userSpaceOnUse">
			<stop  offset="0" style="stop-color:#3399FF"/>
			<stop  offset="0.4041" style="stop-color:#329BFE"/>
			<stop  offset="0.5731" style="stop-color:#2EA2FA"/>
			<stop  offset="0.6981" style="stop-color:#28AFF4"/>
			<stop  offset="0.8016" style="stop-color:#1FC0EB"/>
			<stop  offset="0.8917" style="stop-color:#14D7E0"/>
			<stop  offset="0.9711" style="stop-color:#06F3D2"/>
			<stop  offset="1" style="stop-color:#00FFCC"/>
		</radialGradient>
		<circle fill="url(#SVGID_33_)" cx="-326.78" cy="-317.512" r="461.9"/>
	</g>
	<g>
		
			<radialGradient id="SVGID_34_" cx="-5645.1797" cy="6564.5347" r="448.4471" gradientTransform="matrix(1 0 0 -1 5318.3999 6247.0225)" gradientUnits="userSpaceOnUse">
			<stop  offset="0" style="stop-color:#3399FF"/>
			<stop  offset="0.4041" style="stop-color:#329BFE"/>
			<stop  offset="0.5731" style="stop-color:#2EA2FA"/>
			<stop  offset="0.6981" style="stop-color:#28AFF4"/>
			<stop  offset="0.8016" style="stop-color:#1FC0EB"/>
			<stop  offset="0.8917" style="stop-color:#14D7E0"/>
			<stop  offset="0.9711" style="stop-color:#06F3D2"/>
			<stop  offset="1" style="stop-color:#00FFCC"/>
		</radialGradient>
		<circle fill="url(#SVGID_34_)" cx="-326.78" cy="-317.512" r="448.447"/>
	</g>
	<g>
		
			<radialGradient id="SVGID_35_" cx="-5645.1797" cy="6564.5347" r="435.3849" gradientTransform="matrix(1 0 0 -1 5318.3999 6247.0225)" gradientUnits="userSpaceOnUse">
			<stop  offset="0" style="stop-color:#3399FF"/>
			<stop  offset="0.4041" style="stop-color:#329BFE"/>
			<stop  offset="0.5731" style="stop-color:#2EA2FA"/>
			<stop  offset="0.6981" style="stop-color:#28AFF4"/>
			<stop  offset="0.8016" style="stop-color:#1FC0EB"/>
			<stop  offset="0.8917" style="stop-color:#14D7E0"/>
			<stop  offset="0.9711" style="stop-color:#06F3D2"/>
			<stop  offset="1" style="stop-color:#00FFCC"/>
		</radialGradient>
		<circle fill="url(#SVGID_35_)" cx="-326.78" cy="-317.512" r="435.385"/>
	</g>
	<g>
		
			<radialGradient id="SVGID_36_" cx="-5645.1797" cy="6564.5347" r="422.704" gradientTransform="matrix(1 0 0 -1 5318.3999 6247.0225)" gradientUnits="userSpaceOnUse">
			<stop  offset="0" style="stop-color:#3399FF"/>
			<stop  offset="0.4041" style="stop-color:#329BFE"/>
			<stop  offset="0.5731" style="stop-color:#2EA2FA"/>
			<stop  offset="0.6981" style="stop-color:#28AFF4"/>
			<stop  offset="0.8016" style="stop-color:#1FC0EB"/>
			<stop  offset="0.8917" style="stop-color:#14D7E0"/>
			<stop  offset="0.9711" style="stop-color:#06F3D2"/>
			<stop  offset="1" style="stop-color:#00FFCC"/>
		</radialGradient>
		<circle fill="url(#SVGID_36_)" cx="-326.78" cy="-317.512" r="422.704"/>
	</g>
	<g>
		
			<radialGradient id="SVGID_37_" cx="-5645.1797" cy="6564.5347" r="410.3922" gradientTransform="matrix(1 0 0 -1 5318.3999 6247.0225)" gradientUnits="userSpaceOnUse">
			<stop  offset="0" style="stop-color:#3399FF"/>
			<stop  offset="0.4041" style="stop-color:#329BFE"/>
			<stop  offset="0.5731" style="stop-color:#2EA2FA"/>
			<stop  offset="0.6981" style="stop-color:#28AFF4"/>
			<stop  offset="0.8016" style="stop-color:#1FC0EB"/>
			<stop  offset="0.8917" style="stop-color:#14D7E0"/>
			<stop  offset="0.9711" style="stop-color:#06F3D2"/>
			<stop  offset="1" style="stop-color:#00FFCC"/>
		</radialGradient>
		<circle fill="url(#SVGID_37_)" cx="-326.78" cy="-317.512" r="410.392"/>
	</g>
	<g>
		
			<radialGradient id="SVGID_38_" cx="-5645.1797" cy="6564.5347" r="398.4393" gradientTransform="matrix(1 0 0 -1 5318.3999 6247.0225)" gradientUnits="userSpaceOnUse">
			<stop  offset="0" style="stop-color:#3399FF"/>
			<stop  offset="0.4041" style="stop-color:#329BFE"/>
			<stop  offset="0.5731" style="stop-color:#2EA2FA"/>
			<stop  offset="0.6981" style="stop-color:#28AFF4"/>
			<stop  offset="0.8016" style="stop-color:#1FC0EB"/>
			<stop  offset="0.8917" style="stop-color:#14D7E0"/>
			<stop  offset="0.9711" style="stop-color:#06F3D2"/>
			<stop  offset="1" style="stop-color:#00FFCC"/>
		</radialGradient>
		<circle fill="url(#SVGID_38_)" cx="-326.78" cy="-317.512" r="398.439"/>
	</g>
	<g>
		
			<radialGradient id="SVGID_39_" cx="-5645.1797" cy="6564.5347" r="386.834" gradientTransform="matrix(1 0 0 -1 5318.3999 6247.0225)" gradientUnits="userSpaceOnUse">
			<stop  offset="0" style="stop-color:#3399FF"/>
			<stop  offset="0.4041" style="stop-color:#329BFE"/>
			<stop  offset="0.5731" style="stop-color:#2EA2FA"/>
			<stop  offset="0.6981" style="stop-color:#28AFF4"/>
			<stop  offset="0.8016" style="stop-color:#1FC0EB"/>
			<stop  offset="0.8917" style="stop-color:#14D7E0"/>
			<stop  offset="0.9711" style="stop-color:#06F3D2"/>
			<stop  offset="1" style="stop-color:#00FFCC"/>
		</radialGradient>
		<circle fill="url(#SVGID_39_)" cx="-326.78" cy="-317.512" r="386.834"/>
	</g>
	<g>
		
			<radialGradient id="SVGID_40_" cx="-5645.1797" cy="6564.5347" r="375.5668" gradientTransform="matrix(1 0 0 -1 5318.3999 6247.0225)" gradientUnits="userSpaceOnUse">
			<stop  offset="0" style="stop-color:#3399FF"/>
			<stop  offset="0.4041" style="stop-color:#329BFE"/>
			<stop  offset="0.5731" style="stop-color:#2EA2FA"/>
			<stop  offset="0.6981" style="stop-color:#28AFF4"/>
			<stop  offset="0.8016" style="stop-color:#1FC0EB"/>
			<stop  offset="0.8917" style="stop-color:#14D7E0"/>
			<stop  offset="0.9711" style="stop-color:#06F3D2"/>
			<stop  offset="1" style="stop-color:#00FFCC"/>
		</radialGradient>
		<circle fill="url(#SVGID_40_)" cx="-326.78" cy="-317.512" r="375.567"/>
	</g>
</g>
</svg>
