<?xml version="1.0" encoding="utf-8"?>
<!-- Generator: Adobe Illustrator 16.0.0, SVG Export Plug-In . SVG Version: 6.00 Build 0)  -->
<!DOCTYPE svg PUBLIC "-//W3C//DTD SVG 1.1//EN" "http://www.w3.org/Graphics/SVG/1.1/DTD/svg11.dtd">
<svg version="1.1" id="Layer_1" xmlns="http://www.w3.org/2000/svg" xmlns:xlink="http://www.w3.org/1999/xlink" x="0px" y="0px"
	 width="1366px" height="1050.983px" viewBox="0 0 1366 1050.983" enable-background="new 0 0 1366 1050.983" xml:space="preserve">
<g>
	<g>
		<radialGradient id="SVGID_1_" cx="-326.7822" cy="-92.5039" r="1189.4272" gradientUnits="userSpaceOnUse">
			<stop  offset="0" style="stop-color:#3399FF"/>
			<stop  offset="0.4041" style="stop-color:#329BFE"/>
			<stop  offset="0.5731" style="stop-color:#2EA2FA"/>
			<stop  offset="0.6981" style="stop-color:#28AFF4"/>
			<stop  offset="0.8016" style="stop-color:#1FC0EB"/>
			<stop  offset="0.8917" style="stop-color:#14D7E0"/>
			<stop  offset="0.9711" style="stop-color:#06F3D2"/>
			<stop  offset="1" style="stop-color:#00FFCC"/>
		</radialGradient>
		<path fill="url(#SVGID_1_)" d="M862.647-92.5c0,656.891-532.532,1189.421-1189.426,1189.421
			c-656.896,0-1189.433-532.53-1189.433-1189.421c0-656.905,532.536-1189.429,1189.433-1189.429
			C330.116-1281.929,862.647-749.405,862.647-92.5z"/>
	</g>
	<g>
		<radialGradient id="SVGID_2_" cx="-326.7822" cy="-92.5039" r="1154.7837" gradientUnits="userSpaceOnUse">
			<stop  offset="0" style="stop-color:#3399FF"/>
			<stop  offset="0.4041" style="stop-color:#329BFE"/>
			<stop  offset="0.5731" style="stop-color:#2EA2FA"/>
			<stop  offset="0.6981" style="stop-color:#28AFF4"/>
			<stop  offset="0.8016" style="stop-color:#1FC0EB"/>
			<stop  offset="0.8917" style="stop-color:#14D7E0"/>
			<stop  offset="0.9711" style="stop-color:#06F3D2"/>
			<stop  offset="1" style="stop-color:#00FFCC"/>
		</radialGradient>
		<path fill="url(#SVGID_2_)" d="M828.004-92.5c0,637.758-517.021,1154.777-1154.783,1154.777
			c-637.764,0-1154.789-517.02-1154.789-1154.777c0-637.771,517.025-1154.785,1154.789-1154.785
			C310.983-1247.285,828.004-730.271,828.004-92.5z"/>
	</g>
	<g>
		<radialGradient id="SVGID_3_" cx="-326.7822" cy="-92.5039" r="1121.1489" gradientUnits="userSpaceOnUse">
			<stop  offset="0" style="stop-color:#3399FF"/>
			<stop  offset="0.4041" style="stop-color:#329BFE"/>
			<stop  offset="0.5731" style="stop-color:#2EA2FA"/>
			<stop  offset="0.6981" style="stop-color:#28AFF4"/>
			<stop  offset="0.8016" style="stop-color:#1FC0EB"/>
			<stop  offset="0.8917" style="stop-color:#14D7E0"/>
			<stop  offset="0.9711" style="stop-color:#06F3D2"/>
			<stop  offset="1" style="stop-color:#00FFCC"/>
		</radialGradient>
		<path fill="url(#SVGID_3_)" d="M794.369-92.5c0,619.183-501.962,1121.143-1121.148,1121.143
			c-619.188,0-1121.154-501.96-1121.154-1121.143c0-619.196,501.966-1121.151,1121.154-1121.151
			C292.407-1213.651,794.369-711.696,794.369-92.5z"/>
	</g>
	<g>
		<radialGradient id="SVGID_4_" cx="-326.7817" cy="-92.5039" r="1088.4944" gradientUnits="userSpaceOnUse">
			<stop  offset="0" style="stop-color:#3399FF"/>
			<stop  offset="0.4041" style="stop-color:#329BFE"/>
			<stop  offset="0.5731" style="stop-color:#2EA2FA"/>
			<stop  offset="0.6981" style="stop-color:#28AFF4"/>
			<stop  offset="0.8016" style="stop-color:#1FC0EB"/>
			<stop  offset="0.8917" style="stop-color:#14D7E0"/>
			<stop  offset="0.9711" style="stop-color:#06F3D2"/>
			<stop  offset="1" style="stop-color:#00FFCC"/>
		</radialGradient>
		<path fill="url(#SVGID_4_)" d="M761.715-92.5c0,601.148-487.342,1088.488-1088.494,1088.488
			c-601.153,0-1088.5-487.34-1088.5-1088.488c0-601.161,487.346-1088.496,1088.5-1088.496
			C274.373-1180.996,761.715-693.661,761.715-92.5z"/>
	</g>
	<g>
		<radialGradient id="SVGID_5_" cx="-326.7817" cy="-92.5034" r="1056.7905" gradientUnits="userSpaceOnUse">
			<stop  offset="0" style="stop-color:#3399FF"/>
			<stop  offset="0.4041" style="stop-color:#329BFE"/>
			<stop  offset="0.5731" style="stop-color:#2EA2FA"/>
			<stop  offset="0.6981" style="stop-color:#28AFF4"/>
			<stop  offset="0.8016" style="stop-color:#1FC0EB"/>
			<stop  offset="0.8917" style="stop-color:#14D7E0"/>
			<stop  offset="0.9711" style="stop-color:#06F3D2"/>
			<stop  offset="1" style="stop-color:#00FFCC"/>
		</radialGradient>
		<path fill="url(#SVGID_5_)" d="M730.011-92.5c0,583.64-473.147,1056.785-1056.79,1056.785
			c-583.644,0-1056.795-473.146-1056.795-1056.785c0-583.651,473.151-1056.792,1056.795-1056.792
			C256.863-1149.292,730.011-676.151,730.011-92.5z"/>
	</g>
	<g>
		<radialGradient id="SVGID_6_" cx="-326.7817" cy="-92.5034" r="1026.0103" gradientUnits="userSpaceOnUse">
			<stop  offset="0" style="stop-color:#3399FF"/>
			<stop  offset="0.4041" style="stop-color:#329BFE"/>
			<stop  offset="0.5731" style="stop-color:#2EA2FA"/>
			<stop  offset="0.6981" style="stop-color:#28AFF4"/>
			<stop  offset="0.8016" style="stop-color:#1FC0EB"/>
			<stop  offset="0.8917" style="stop-color:#14D7E0"/>
			<stop  offset="0.9711" style="stop-color:#06F3D2"/>
			<stop  offset="1" style="stop-color:#00FFCC"/>
		</radialGradient>
		<path fill="url(#SVGID_6_)" d="M699.23-92.5c0,566.641-459.367,1026.005-1026.009,1026.005
			c-566.645,0-1026.015-459.364-1026.015-1026.005c0-566.652,459.371-1026.012,1026.015-1026.012
			C239.864-1118.512,699.23-659.152,699.23-92.5z"/>
	</g>
	<g>
		<radialGradient id="SVGID_7_" cx="-326.7817" cy="-92.5034" r="996.1265" gradientUnits="userSpaceOnUse">
			<stop  offset="0" style="stop-color:#3399FF"/>
			<stop  offset="0.4041" style="stop-color:#329BFE"/>
			<stop  offset="0.5731" style="stop-color:#2EA2FA"/>
			<stop  offset="0.6981" style="stop-color:#28AFF4"/>
			<stop  offset="0.8016" style="stop-color:#1FC0EB"/>
			<stop  offset="0.8917" style="stop-color:#14D7E0"/>
			<stop  offset="0.9711" style="stop-color:#06F3D2"/>
			<stop  offset="1" style="stop-color:#00FFCC"/>
		</radialGradient>
		<path fill="url(#SVGID_7_)" d="M669.347-92.5c0,550.137-445.987,996.121-996.125,996.121
			c-550.14,0-996.131-445.984-996.131-996.121c0-550.147,445.991-996.128,996.131-996.128
			C223.36-1088.628,669.347-642.647,669.347-92.5z"/>
	</g>
	<g>
		<radialGradient id="SVGID_8_" cx="-326.7813" cy="-92.5029" r="967.113" gradientUnits="userSpaceOnUse">
			<stop  offset="0" style="stop-color:#3399FF"/>
			<stop  offset="0.4041" style="stop-color:#329BFE"/>
			<stop  offset="0.5731" style="stop-color:#2EA2FA"/>
			<stop  offset="0.6981" style="stop-color:#28AFF4"/>
			<stop  offset="0.8016" style="stop-color:#1FC0EB"/>
			<stop  offset="0.8917" style="stop-color:#14D7E0"/>
			<stop  offset="0.9711" style="stop-color:#06F3D2"/>
			<stop  offset="1" style="stop-color:#00FFCC"/>
		</radialGradient>
		<path fill="url(#SVGID_8_)" d="M640.333-92.5c0,534.113-432.997,967.108-967.112,967.108
			c-534.117,0-967.118-432.995-967.118-967.108c0-534.124,433.001-967.115,967.118-967.115
			C207.336-1059.615,640.333-626.624,640.333-92.5z"/>
	</g>
	<g>
		<radialGradient id="SVGID_9_" cx="-326.7813" cy="-92.5029" r="938.9448" gradientUnits="userSpaceOnUse">
			<stop  offset="0" style="stop-color:#3399FF"/>
			<stop  offset="0.4041" style="stop-color:#329BFE"/>
			<stop  offset="0.5731" style="stop-color:#2EA2FA"/>
			<stop  offset="0.6981" style="stop-color:#28AFF4"/>
			<stop  offset="0.8016" style="stop-color:#1FC0EB"/>
			<stop  offset="0.8917" style="stop-color:#14D7E0"/>
			<stop  offset="0.9711" style="stop-color:#06F3D2"/>
			<stop  offset="1" style="stop-color:#00FFCC"/>
		</radialGradient>
		<path fill="url(#SVGID_9_)" d="M612.165-92.5c0,518.557-420.385,938.94-938.944,938.94c-518.56,0-938.949-420.384-938.949-938.94
			c0-518.566,420.389-938.946,938.949-938.946C191.78-1031.446,612.165-611.066,612.165-92.5z"/>
	</g>
	<g>
		<radialGradient id="SVGID_10_" cx="-326.7813" cy="-92.5029" r="911.5972" gradientUnits="userSpaceOnUse">
			<stop  offset="0" style="stop-color:#3399FF"/>
			<stop  offset="0.4041" style="stop-color:#329BFE"/>
			<stop  offset="0.5731" style="stop-color:#2EA2FA"/>
			<stop  offset="0.6981" style="stop-color:#28AFF4"/>
			<stop  offset="0.8016" style="stop-color:#1FC0EB"/>
			<stop  offset="0.8917" style="stop-color:#14D7E0"/>
			<stop  offset="0.9711" style="stop-color:#06F3D2"/>
			<stop  offset="1" style="stop-color:#00FFCC"/>
		</radialGradient>
		<path fill="url(#SVGID_10_)" d="M584.817-92.5c0,503.453-408.141,911.593-911.596,911.593
			c-503.457,0-911.601-408.14-911.601-911.593c0-503.462,408.145-911.598,911.601-911.598
			C176.676-1004.098,584.817-595.962,584.817-92.5z"/>
	</g>
	<g>
		<radialGradient id="SVGID_11_" cx="-326.7813" cy="-92.5024" r="885.0459" gradientUnits="userSpaceOnUse">
			<stop  offset="0" style="stop-color:#3399FF"/>
			<stop  offset="0.4041" style="stop-color:#329BFE"/>
			<stop  offset="0.5731" style="stop-color:#2EA2FA"/>
			<stop  offset="0.6981" style="stop-color:#28AFF4"/>
			<stop  offset="0.8016" style="stop-color:#1FC0EB"/>
			<stop  offset="0.8917" style="stop-color:#14D7E0"/>
			<stop  offset="0.9711" style="stop-color:#06F3D2"/>
			<stop  offset="1" style="stop-color:#00FFCC"/>
		</radialGradient>
		<path fill="url(#SVGID_11_)" d="M558.266-92.5c0,488.789-396.253,885.042-885.045,885.042
			c-488.793,0-885.049-396.253-885.049-885.042c0-488.798,396.256-885.047,885.049-885.047
			C162.013-977.547,558.266-581.298,558.266-92.5z"/>
	</g>
	<g>
		<radialGradient id="SVGID_12_" cx="-326.7813" cy="-92.5029" r="859.2681" gradientUnits="userSpaceOnUse">
			<stop  offset="0" style="stop-color:#3399FF"/>
			<stop  offset="0.4041" style="stop-color:#329BFE"/>
			<stop  offset="0.5731" style="stop-color:#2EA2FA"/>
			<stop  offset="0.6981" style="stop-color:#28AFF4"/>
			<stop  offset="0.8016" style="stop-color:#1FC0EB"/>
			<stop  offset="0.8917" style="stop-color:#14D7E0"/>
			<stop  offset="0.9711" style="stop-color:#06F3D2"/>
			<stop  offset="1" style="stop-color:#00FFCC"/>
		</radialGradient>
		<path fill="url(#SVGID_12_)" d="M532.488-92.5c0,474.553-384.712,859.264-859.267,859.264
			c-474.556,0-859.271-384.711-859.271-859.264c0-474.562,384.715-859.269,859.271-859.269
			C147.776-951.769,532.488-567.062,532.488-92.5z"/>
	</g>
	<g>
		<radialGradient id="SVGID_13_" cx="-326.7813" cy="-92.5029" r="834.2407" gradientUnits="userSpaceOnUse">
			<stop  offset="0" style="stop-color:#3399FF"/>
			<stop  offset="0.4041" style="stop-color:#329BFE"/>
			<stop  offset="0.5731" style="stop-color:#2EA2FA"/>
			<stop  offset="0.6981" style="stop-color:#28AFF4"/>
			<stop  offset="0.8016" style="stop-color:#1FC0EB"/>
			<stop  offset="0.8917" style="stop-color:#14D7E0"/>
			<stop  offset="0.9711" style="stop-color:#06F3D2"/>
			<stop  offset="1" style="stop-color:#00FFCC"/>
		</radialGradient>
		<path fill="url(#SVGID_13_)" d="M507.461-92.5c0,460.73-373.507,834.236-834.24,834.236
			c-460.734,0-834.244-373.506-834.244-834.236c0-460.739,373.51-834.242,834.244-834.242
			C133.954-926.742,507.461-553.239,507.461-92.5z"/>
	</g>
	<g>
		<radialGradient id="SVGID_14_" cx="-326.7813" cy="-92.5024" r="809.9424" gradientUnits="userSpaceOnUse">
			<stop  offset="0" style="stop-color:#3399FF"/>
			<stop  offset="0.4041" style="stop-color:#329BFE"/>
			<stop  offset="0.5731" style="stop-color:#2EA2FA"/>
			<stop  offset="0.6981" style="stop-color:#28AFF4"/>
			<stop  offset="0.8016" style="stop-color:#1FC0EB"/>
			<stop  offset="0.8917" style="stop-color:#14D7E0"/>
			<stop  offset="0.9711" style="stop-color:#06F3D2"/>
			<stop  offset="1" style="stop-color:#00FFCC"/>
		</radialGradient>
		<path fill="url(#SVGID_14_)" d="M483.163-92.5c0,447.312-362.628,809.938-809.941,809.938
			c-447.315,0-809.946-362.627-809.946-809.938c0-447.32,362.631-809.943,809.946-809.943
			C120.535-902.443,483.163-539.82,483.163-92.5z"/>
	</g>
	<g>
		<radialGradient id="SVGID_15_" cx="-326.7808" cy="-92.5029" r="786.3517" gradientUnits="userSpaceOnUse">
			<stop  offset="0" style="stop-color:#3399FF"/>
			<stop  offset="0.4041" style="stop-color:#329BFE"/>
			<stop  offset="0.5731" style="stop-color:#2EA2FA"/>
			<stop  offset="0.6981" style="stop-color:#28AFF4"/>
			<stop  offset="0.8016" style="stop-color:#1FC0EB"/>
			<stop  offset="0.8917" style="stop-color:#14D7E0"/>
			<stop  offset="0.9711" style="stop-color:#06F3D2"/>
			<stop  offset="1" style="stop-color:#00FFCC"/>
		</radialGradient>
		<path fill="url(#SVGID_15_)" d="M459.572-92.5c0,434.283-352.066,786.348-786.351,786.348
			c-434.286,0-786.355-352.064-786.355-786.348c0-434.291,352.069-786.353,786.355-786.353
			C107.506-878.853,459.572-526.791,459.572-92.5z"/>
	</g>
	<g>
		<radialGradient id="SVGID_16_" cx="-326.7808" cy="-92.5029" r="763.4485" gradientUnits="userSpaceOnUse">
			<stop  offset="0" style="stop-color:#3399FF"/>
			<stop  offset="0.4041" style="stop-color:#329BFE"/>
			<stop  offset="0.5731" style="stop-color:#2EA2FA"/>
			<stop  offset="0.6981" style="stop-color:#28AFF4"/>
			<stop  offset="0.8016" style="stop-color:#1FC0EB"/>
			<stop  offset="0.8917" style="stop-color:#14D7E0"/>
			<stop  offset="0.9711" style="stop-color:#06F3D2"/>
			<stop  offset="1" style="stop-color:#00FFCC"/>
		</radialGradient>
		<path fill="url(#SVGID_16_)" d="M436.669-92.5c0,421.634-341.812,763.444-763.448,763.444
			c-421.637,0-763.452-341.811-763.452-763.444c0-421.642,341.814-763.45,763.452-763.45
			C94.857-855.95,436.669-514.142,436.669-92.5z"/>
	</g>
	<g>
		<radialGradient id="SVGID_17_" cx="-326.7808" cy="-92.5029" r="741.2122" gradientUnits="userSpaceOnUse">
			<stop  offset="0" style="stop-color:#3399FF"/>
			<stop  offset="0.4041" style="stop-color:#329BFE"/>
			<stop  offset="0.5731" style="stop-color:#2EA2FA"/>
			<stop  offset="0.6981" style="stop-color:#28AFF4"/>
			<stop  offset="0.8016" style="stop-color:#1FC0EB"/>
			<stop  offset="0.8917" style="stop-color:#14D7E0"/>
			<stop  offset="0.9711" style="stop-color:#06F3D2"/>
			<stop  offset="1" style="stop-color:#00FFCC"/>
		</radialGradient>
		<path fill="url(#SVGID_17_)" d="M414.433-92.5c0,409.354-331.856,741.208-741.211,741.208
			c-409.356,0-741.215-331.854-741.215-741.208c0-409.361,331.859-741.213,741.215-741.213
			C82.577-833.713,414.433-501.861,414.433-92.5z"/>
	</g>
	<g>
		<radialGradient id="SVGID_18_" cx="-326.7808" cy="-92.5029" r="719.6233" gradientUnits="userSpaceOnUse">
			<stop  offset="0" style="stop-color:#3399FF"/>
			<stop  offset="0.4041" style="stop-color:#329BFE"/>
			<stop  offset="0.5731" style="stop-color:#2EA2FA"/>
			<stop  offset="0.6981" style="stop-color:#28AFF4"/>
			<stop  offset="0.8016" style="stop-color:#1FC0EB"/>
			<stop  offset="0.8917" style="stop-color:#14D7E0"/>
			<stop  offset="0.9711" style="stop-color:#06F3D2"/>
			<stop  offset="1" style="stop-color:#00FFCC"/>
		</radialGradient>
		<path fill="url(#SVGID_18_)" d="M392.844-92.5c0,397.431-322.19,719.619-719.623,719.619
			c-397.434,0-719.626-322.188-719.626-719.619c0-397.438,322.193-719.625,719.626-719.625
			C70.654-812.125,392.844-489.938,392.844-92.5z"/>
	</g>
	<g>
		<radialGradient id="SVGID_19_" cx="-326.7808" cy="-92.5029" r="698.6633" gradientUnits="userSpaceOnUse">
			<stop  offset="0" style="stop-color:#3399FF"/>
			<stop  offset="0.4041" style="stop-color:#329BFE"/>
			<stop  offset="0.5731" style="stop-color:#2EA2FA"/>
			<stop  offset="0.6981" style="stop-color:#28AFF4"/>
			<stop  offset="0.8016" style="stop-color:#1FC0EB"/>
			<stop  offset="0.8917" style="stop-color:#14D7E0"/>
			<stop  offset="0.9711" style="stop-color:#06F3D2"/>
			<stop  offset="1" style="stop-color:#00FFCC"/>
		</radialGradient>
		<path fill="url(#SVGID_19_)" d="M371.884-92.5c0,385.855-312.806,698.659-698.663,698.659
			c-385.858,0-698.667-312.804-698.667-698.659c0-385.862,312.809-698.665,698.667-698.665
			C59.078-791.165,371.884-478.362,371.884-92.5z"/>
	</g>
	<g>
		<radialGradient id="SVGID_20_" cx="-326.7803" cy="-92.5029" r="678.3137" gradientUnits="userSpaceOnUse">
			<stop  offset="0" style="stop-color:#3399FF"/>
			<stop  offset="0.4041" style="stop-color:#329BFE"/>
			<stop  offset="0.5731" style="stop-color:#2EA2FA"/>
			<stop  offset="0.6981" style="stop-color:#28AFF4"/>
			<stop  offset="0.8016" style="stop-color:#1FC0EB"/>
			<stop  offset="0.8917" style="stop-color:#14D7E0"/>
			<stop  offset="0.9711" style="stop-color:#06F3D2"/>
			<stop  offset="1" style="stop-color:#00FFCC"/>
		</radialGradient>
		<path fill="url(#SVGID_20_)" d="M351.535-92.5c0,374.617-303.695,678.31-678.313,678.31
			c-374.619,0-678.317-303.692-678.317-678.31c0-374.623,303.698-678.315,678.317-678.315
			C47.839-770.815,351.535-467.123,351.535-92.5z"/>
	</g>
	<g>
		<radialGradient id="SVGID_21_" cx="-326.7803" cy="-92.5029" r="658.5569" gradientUnits="userSpaceOnUse">
			<stop  offset="0" style="stop-color:#3399FF"/>
			<stop  offset="0.4041" style="stop-color:#329BFE"/>
			<stop  offset="0.5731" style="stop-color:#2EA2FA"/>
			<stop  offset="0.6981" style="stop-color:#28AFF4"/>
			<stop  offset="0.8016" style="stop-color:#1FC0EB"/>
			<stop  offset="0.8917" style="stop-color:#14D7E0"/>
			<stop  offset="0.9711" style="stop-color:#06F3D2"/>
			<stop  offset="1" style="stop-color:#00FFCC"/>
		</radialGradient>
		<path fill="url(#SVGID_21_)" d="M331.778-92.5c0,363.706-294.85,658.553-658.557,658.553
			c-363.708,0-658.56-294.847-658.56-658.553c0-363.712,294.852-658.558,658.56-658.558
			C36.928-751.058,331.778-456.212,331.778-92.5z"/>
	</g>
	<g>
		<radialGradient id="SVGID_22_" cx="-326.7803" cy="-92.5024" r="639.3757" gradientUnits="userSpaceOnUse">
			<stop  offset="0" style="stop-color:#3399FF"/>
			<stop  offset="0.4041" style="stop-color:#329BFE"/>
			<stop  offset="0.5731" style="stop-color:#2EA2FA"/>
			<stop  offset="0.6981" style="stop-color:#28AFF4"/>
			<stop  offset="0.8016" style="stop-color:#1FC0EB"/>
			<stop  offset="0.8917" style="stop-color:#14D7E0"/>
			<stop  offset="0.9711" style="stop-color:#06F3D2"/>
			<stop  offset="1" style="stop-color:#00FFCC"/>
		</radialGradient>
		<path fill="url(#SVGID_22_)" d="M312.597-92.5c0,353.112-286.262,639.372-639.375,639.372
			c-353.115,0-639.379-286.26-639.379-639.372c0-353.118,286.264-639.377,639.379-639.377
			C26.335-731.877,312.597-445.618,312.597-92.5z"/>
	</g>
	<g>
		<radialGradient id="SVGID_23_" cx="-326.7803" cy="-92.502" r="620.7532" gradientUnits="userSpaceOnUse">
			<stop  offset="0" style="stop-color:#3399FF"/>
			<stop  offset="0.4041" style="stop-color:#329BFE"/>
			<stop  offset="0.5731" style="stop-color:#2EA2FA"/>
			<stop  offset="0.6981" style="stop-color:#28AFF4"/>
			<stop  offset="0.8016" style="stop-color:#1FC0EB"/>
			<stop  offset="0.8917" style="stop-color:#14D7E0"/>
			<stop  offset="0.9711" style="stop-color:#06F3D2"/>
			<stop  offset="1" style="stop-color:#00FFCC"/>
		</radialGradient>
		<path fill="url(#SVGID_23_)" d="M293.974-92.5c0,342.828-277.924,620.75-620.753,620.75c-342.83,0-620.756-277.922-620.756-620.75
			c0-342.833,277.926-620.754,620.756-620.754C16.05-713.254,293.974-435.333,293.974-92.5z"/>
	</g>
	<g>
		<radialGradient id="SVGID_24_" cx="-326.7803" cy="-92.502" r="602.6731" gradientUnits="userSpaceOnUse">
			<stop  offset="0" style="stop-color:#3399FF"/>
			<stop  offset="0.4041" style="stop-color:#329BFE"/>
			<stop  offset="0.5731" style="stop-color:#2EA2FA"/>
			<stop  offset="0.6981" style="stop-color:#28AFF4"/>
			<stop  offset="0.8016" style="stop-color:#1FC0EB"/>
			<stop  offset="0.8917" style="stop-color:#14D7E0"/>
			<stop  offset="0.9711" style="stop-color:#06F3D2"/>
			<stop  offset="1" style="stop-color:#00FFCC"/>
		</radialGradient>
		<path fill="url(#SVGID_24_)" d="M275.894-92.5c0,332.842-269.829,602.67-602.673,602.67
			c-332.845,0-602.676-269.828-602.676-602.67c0-332.848,269.832-602.674,602.676-602.674
			C6.065-695.174,275.894-425.348,275.894-92.5z"/>
	</g>
	<g>
		<radialGradient id="SVGID_25_" cx="-326.7803" cy="-92.502" r="585.1194" gradientUnits="userSpaceOnUse">
			<stop  offset="0" style="stop-color:#3399FF"/>
			<stop  offset="0.4041" style="stop-color:#329BFE"/>
			<stop  offset="0.5731" style="stop-color:#2EA2FA"/>
			<stop  offset="0.6981" style="stop-color:#28AFF4"/>
			<stop  offset="0.8016" style="stop-color:#1FC0EB"/>
			<stop  offset="0.8917" style="stop-color:#14D7E0"/>
			<stop  offset="0.9711" style="stop-color:#06F3D2"/>
			<stop  offset="1" style="stop-color:#00FFCC"/>
		</radialGradient>
		<path fill="url(#SVGID_25_)" d="M258.34-92.5c0,323.148-261.97,585.116-585.119,585.116
			c-323.15,0-585.123-261.968-585.123-585.116c0-323.153,261.972-585.121,585.123-585.121
			C-3.629-677.621,258.34-415.653,258.34-92.5z"/>
	</g>
	<g>
		<radialGradient id="SVGID_26_" cx="-326.7803" cy="-92.502" r="568.0771" gradientUnits="userSpaceOnUse">
			<stop  offset="0" style="stop-color:#3399FF"/>
			<stop  offset="0.4041" style="stop-color:#329BFE"/>
			<stop  offset="0.5731" style="stop-color:#2EA2FA"/>
			<stop  offset="0.6981" style="stop-color:#28AFF4"/>
			<stop  offset="0.8016" style="stop-color:#1FC0EB"/>
			<stop  offset="0.8917" style="stop-color:#14D7E0"/>
			<stop  offset="0.9711" style="stop-color:#06F3D2"/>
			<stop  offset="1" style="stop-color:#00FFCC"/>
		</radialGradient>
		<path fill="url(#SVGID_26_)" d="M241.298-92.5c0,313.736-254.339,568.074-568.077,568.074
			c-313.738,0-568.08-254.338-568.08-568.074c0-313.741,254.342-568.078,568.08-568.078
			C-13.042-660.578,241.298-406.241,241.298-92.5z"/>
	</g>
	<g>
		<radialGradient id="SVGID_27_" cx="-326.7803" cy="-92.502" r="551.5313" gradientUnits="userSpaceOnUse">
			<stop  offset="0" style="stop-color:#3399FF"/>
			<stop  offset="0.4041" style="stop-color:#329BFE"/>
			<stop  offset="0.5731" style="stop-color:#2EA2FA"/>
			<stop  offset="0.6981" style="stop-color:#28AFF4"/>
			<stop  offset="0.8016" style="stop-color:#1FC0EB"/>
			<stop  offset="0.8917" style="stop-color:#14D7E0"/>
			<stop  offset="0.9711" style="stop-color:#06F3D2"/>
			<stop  offset="1" style="stop-color:#00FFCC"/>
		</radialGradient>
		<path fill="url(#SVGID_27_)" d="M224.752-92.5c0,304.598-246.932,551.528-551.531,551.528
			c-304.6,0-551.534-246.93-551.534-551.528c0-304.603,246.934-551.532,551.534-551.532
			C-22.18-644.032,224.752-397.103,224.752-92.5z"/>
	</g>
	<g>
		<radialGradient id="SVGID_28_" cx="-326.7803" cy="-92.502" r="535.4675" gradientUnits="userSpaceOnUse">
			<stop  offset="0" style="stop-color:#3399FF"/>
			<stop  offset="0.4041" style="stop-color:#329BFE"/>
			<stop  offset="0.5731" style="stop-color:#2EA2FA"/>
			<stop  offset="0.6981" style="stop-color:#28AFF4"/>
			<stop  offset="0.8016" style="stop-color:#1FC0EB"/>
			<stop  offset="0.8917" style="stop-color:#14D7E0"/>
			<stop  offset="0.9711" style="stop-color:#06F3D2"/>
			<stop  offset="1" style="stop-color:#00FFCC"/>
		</radialGradient>
		<path fill="url(#SVGID_28_)" d="M208.688-92.5c0,295.727-239.739,535.465-535.467,535.465
			c-295.728,0-535.47-239.738-535.47-535.465c0-295.73,239.742-535.468,535.47-535.468C-31.051-627.968,208.688-388.23,208.688-92.5
			z"/>
	</g>
	<g>
		<radialGradient id="SVGID_29_" cx="-326.7803" cy="-92.5015" r="519.8713" gradientUnits="userSpaceOnUse">
			<stop  offset="0" style="stop-color:#3399FF"/>
			<stop  offset="0.4041" style="stop-color:#329BFE"/>
			<stop  offset="0.5731" style="stop-color:#2EA2FA"/>
			<stop  offset="0.6981" style="stop-color:#28AFF4"/>
			<stop  offset="0.8016" style="stop-color:#1FC0EB"/>
			<stop  offset="0.8917" style="stop-color:#14D7E0"/>
			<stop  offset="0.9711" style="stop-color:#06F3D2"/>
			<stop  offset="1" style="stop-color:#00FFCC"/>
		</radialGradient>
		<path fill="url(#SVGID_29_)" d="M193.092-92.5c0,287.113-232.756,519.869-519.871,519.869
			c-287.115,0-519.874-232.756-519.874-519.869c0-287.117,232.759-519.872,519.874-519.872
			C-39.665-612.372,193.092-379.617,193.092-92.5z"/>
	</g>
	<g>
		<radialGradient id="SVGID_30_" cx="-326.7803" cy="-92.501" r="504.7295" gradientUnits="userSpaceOnUse">
			<stop  offset="0" style="stop-color:#3399FF"/>
			<stop  offset="0.4041" style="stop-color:#329BFE"/>
			<stop  offset="0.5731" style="stop-color:#2EA2FA"/>
			<stop  offset="0.6981" style="stop-color:#28AFF4"/>
			<stop  offset="0.8016" style="stop-color:#1FC0EB"/>
			<stop  offset="0.8917" style="stop-color:#14D7E0"/>
			<stop  offset="0.9711" style="stop-color:#06F3D2"/>
			<stop  offset="1" style="stop-color:#00FFCC"/>
		</radialGradient>
		<path fill="url(#SVGID_30_)" d="M177.95-92.5c0,278.751-225.977,504.728-504.729,504.728S-831.511,186.251-831.511-92.5
			c0-278.754,225.98-504.73,504.732-504.73S177.95-371.254,177.95-92.5z"/>
	</g>
	<g>
		<radialGradient id="SVGID_31_" cx="-326.7803" cy="-92.5015" r="490.0288" gradientUnits="userSpaceOnUse">
			<stop  offset="0" style="stop-color:#3399FF"/>
			<stop  offset="0.4041" style="stop-color:#329BFE"/>
			<stop  offset="0.5731" style="stop-color:#2EA2FA"/>
			<stop  offset="0.6981" style="stop-color:#28AFF4"/>
			<stop  offset="0.8016" style="stop-color:#1FC0EB"/>
			<stop  offset="0.8917" style="stop-color:#14D7E0"/>
			<stop  offset="0.9711" style="stop-color:#06F3D2"/>
			<stop  offset="1" style="stop-color:#00FFCC"/>
		</radialGradient>
		<path fill="url(#SVGID_31_)" d="M163.25-92.5c0,270.632-219.396,490.026-490.028,490.026S-816.81,178.132-816.81-92.5
			c0-270.635,219.398-490.029,490.031-490.029S163.25-363.135,163.25-92.5z"/>
	</g>
	<g>
		<radialGradient id="SVGID_32_" cx="-326.7798" cy="-92.501" r="475.7558" gradientUnits="userSpaceOnUse">
			<stop  offset="0" style="stop-color:#3399FF"/>
			<stop  offset="0.4041" style="stop-color:#329BFE"/>
			<stop  offset="0.5731" style="stop-color:#2EA2FA"/>
			<stop  offset="0.6981" style="stop-color:#28AFF4"/>
			<stop  offset="0.8016" style="stop-color:#1FC0EB"/>
			<stop  offset="0.8917" style="stop-color:#14D7E0"/>
			<stop  offset="0.9711" style="stop-color:#06F3D2"/>
			<stop  offset="1" style="stop-color:#00FFCC"/>
		</radialGradient>
		<circle fill="url(#SVGID_32_)" cx="-326.78" cy="-92.5" r="475.757"/>
	</g>
	<g>
		<radialGradient id="SVGID_33_" cx="-326.7798" cy="-92.501" r="461.8991" gradientUnits="userSpaceOnUse">
			<stop  offset="0" style="stop-color:#3399FF"/>
			<stop  offset="0.4041" style="stop-color:#329BFE"/>
			<stop  offset="0.5731" style="stop-color:#2EA2FA"/>
			<stop  offset="0.6981" style="stop-color:#28AFF4"/>
			<stop  offset="0.8016" style="stop-color:#1FC0EB"/>
			<stop  offset="0.8917" style="stop-color:#14D7E0"/>
			<stop  offset="0.9711" style="stop-color:#06F3D2"/>
			<stop  offset="1" style="stop-color:#00FFCC"/>
		</radialGradient>
		<circle fill="url(#SVGID_33_)" cx="-326.78" cy="-92.5" r="461.9"/>
	</g>
	<g>
		<radialGradient id="SVGID_34_" cx="-326.7793" cy="-92.501" r="448.4458" gradientUnits="userSpaceOnUse">
			<stop  offset="0" style="stop-color:#3399FF"/>
			<stop  offset="0.4041" style="stop-color:#329BFE"/>
			<stop  offset="0.5731" style="stop-color:#2EA2FA"/>
			<stop  offset="0.6981" style="stop-color:#28AFF4"/>
			<stop  offset="0.8016" style="stop-color:#1FC0EB"/>
			<stop  offset="0.8917" style="stop-color:#14D7E0"/>
			<stop  offset="0.9711" style="stop-color:#06F3D2"/>
			<stop  offset="1" style="stop-color:#00FFCC"/>
		</radialGradient>
		<circle fill="url(#SVGID_34_)" cx="-326.78" cy="-92.5" r="448.447"/>
	</g>
	<g>
		<radialGradient id="SVGID_35_" cx="-326.7793" cy="-92.501" r="435.3843" gradientUnits="userSpaceOnUse">
			<stop  offset="0" style="stop-color:#3399FF"/>
			<stop  offset="0.4041" style="stop-color:#329BFE"/>
			<stop  offset="0.5731" style="stop-color:#2EA2FA"/>
			<stop  offset="0.6981" style="stop-color:#28AFF4"/>
			<stop  offset="0.8016" style="stop-color:#1FC0EB"/>
			<stop  offset="0.8917" style="stop-color:#14D7E0"/>
			<stop  offset="0.9711" style="stop-color:#06F3D2"/>
			<stop  offset="1" style="stop-color:#00FFCC"/>
		</radialGradient>
		<circle fill="url(#SVGID_35_)" cx="-326.78" cy="-92.5" r="435.385"/>
	</g>
	<g>
		<radialGradient id="SVGID_36_" cx="-326.7793" cy="-92.5005" r="422.7031" gradientUnits="userSpaceOnUse">
			<stop  offset="0" style="stop-color:#3399FF"/>
			<stop  offset="0.4041" style="stop-color:#329BFE"/>
			<stop  offset="0.5731" style="stop-color:#2EA2FA"/>
			<stop  offset="0.6981" style="stop-color:#28AFF4"/>
			<stop  offset="0.8016" style="stop-color:#1FC0EB"/>
			<stop  offset="0.8917" style="stop-color:#14D7E0"/>
			<stop  offset="0.9711" style="stop-color:#06F3D2"/>
			<stop  offset="1" style="stop-color:#00FFCC"/>
		</radialGradient>
		<circle fill="url(#SVGID_36_)" cx="-326.78" cy="-92.5" r="422.704"/>
	</g>
	<g>
		<radialGradient id="SVGID_37_" cx="-326.7793" cy="-92.5005" r="410.3916" gradientUnits="userSpaceOnUse">
			<stop  offset="0" style="stop-color:#3399FF"/>
			<stop  offset="0.4041" style="stop-color:#329BFE"/>
			<stop  offset="0.5731" style="stop-color:#2EA2FA"/>
			<stop  offset="0.6981" style="stop-color:#28AFF4"/>
			<stop  offset="0.8016" style="stop-color:#1FC0EB"/>
			<stop  offset="0.8917" style="stop-color:#14D7E0"/>
			<stop  offset="0.9711" style="stop-color:#06F3D2"/>
			<stop  offset="1" style="stop-color:#00FFCC"/>
		</radialGradient>
		<circle fill="url(#SVGID_37_)" cx="-326.78" cy="-92.5" r="410.392"/>
	</g>
	<g>
		<radialGradient id="SVGID_38_" cx="-326.7793" cy="-92.5005" r="398.4385" gradientUnits="userSpaceOnUse">
			<stop  offset="0" style="stop-color:#3399FF"/>
			<stop  offset="0.4041" style="stop-color:#329BFE"/>
			<stop  offset="0.5731" style="stop-color:#2EA2FA"/>
			<stop  offset="0.6981" style="stop-color:#28AFF4"/>
			<stop  offset="0.8016" style="stop-color:#1FC0EB"/>
			<stop  offset="0.8917" style="stop-color:#14D7E0"/>
			<stop  offset="0.9711" style="stop-color:#06F3D2"/>
			<stop  offset="1" style="stop-color:#00FFCC"/>
		</radialGradient>
		<circle fill="url(#SVGID_38_)" cx="-326.78" cy="-92.5" r="398.439"/>
	</g>
	<g>
		<radialGradient id="SVGID_39_" cx="-326.7793" cy="-92.5" r="386.8335" gradientUnits="userSpaceOnUse">
			<stop  offset="0" style="stop-color:#3399FF"/>
			<stop  offset="0.4041" style="stop-color:#329BFE"/>
			<stop  offset="0.5731" style="stop-color:#2EA2FA"/>
			<stop  offset="0.6981" style="stop-color:#28AFF4"/>
			<stop  offset="0.8016" style="stop-color:#1FC0EB"/>
			<stop  offset="0.8917" style="stop-color:#14D7E0"/>
			<stop  offset="0.9711" style="stop-color:#06F3D2"/>
			<stop  offset="1" style="stop-color:#00FFCC"/>
		</radialGradient>
		<circle fill="url(#SVGID_39_)" cx="-326.78" cy="-92.5" r="386.834"/>
	</g>
	<g>
		<radialGradient id="SVGID_40_" cx="-326.7793" cy="-92.5" r="375.5667" gradientUnits="userSpaceOnUse">
			<stop  offset="0" style="stop-color:#3399FF"/>
			<stop  offset="0.4041" style="stop-color:#329BFE"/>
			<stop  offset="0.5731" style="stop-color:#2EA2FA"/>
			<stop  offset="0.6981" style="stop-color:#28AFF4"/>
			<stop  offset="0.8016" style="stop-color:#1FC0EB"/>
			<stop  offset="0.8917" style="stop-color:#14D7E0"/>
			<stop  offset="0.9711" style="stop-color:#06F3D2"/>
			<stop  offset="1" style="stop-color:#00FFCC"/>
		</radialGradient>
		<circle fill="url(#SVGID_40_)" cx="-326.78" cy="-92.5" r="375.567"/>
	</g>
	<g>
		<radialGradient id="SVGID_41_" cx="-326.7793" cy="-92.5" r="364.6279" gradientUnits="userSpaceOnUse">
			<stop  offset="0" style="stop-color:#3399FF"/>
			<stop  offset="0.4041" style="stop-color:#329BFE"/>
			<stop  offset="0.5731" style="stop-color:#2EA2FA"/>
			<stop  offset="0.6981" style="stop-color:#28AFF4"/>
			<stop  offset="0.8016" style="stop-color:#1FC0EB"/>
			<stop  offset="0.8917" style="stop-color:#14D7E0"/>
			<stop  offset="0.9711" style="stop-color:#06F3D2"/>
			<stop  offset="1" style="stop-color:#00FFCC"/>
		</radialGradient>
		<circle fill="url(#SVGID_41_)" cx="-326.78" cy="-92.5" r="364.628"/>
	</g>
	<g>
		<radialGradient id="SVGID_42_" cx="-326.7793" cy="-92.5" r="354.0078" gradientUnits="userSpaceOnUse">
			<stop  offset="0" style="stop-color:#3399FF"/>
			<stop  offset="0.4041" style="stop-color:#329BFE"/>
			<stop  offset="0.5731" style="stop-color:#2EA2FA"/>
			<stop  offset="0.6981" style="stop-color:#28AFF4"/>
			<stop  offset="0.8016" style="stop-color:#1FC0EB"/>
			<stop  offset="0.8917" style="stop-color:#14D7E0"/>
			<stop  offset="0.9711" style="stop-color:#06F3D2"/>
			<stop  offset="1" style="stop-color:#00FFCC"/>
		</radialGradient>
		<circle fill="url(#SVGID_42_)" cx="-326.78" cy="-92.5" r="354.008"/>
	</g>
	<g>
		<radialGradient id="SVGID_43_" cx="-326.7793" cy="-92.4995" r="343.6968" gradientUnits="userSpaceOnUse">
			<stop  offset="0" style="stop-color:#3399FF"/>
			<stop  offset="0.4041" style="stop-color:#329BFE"/>
			<stop  offset="0.5731" style="stop-color:#2EA2FA"/>
			<stop  offset="0.6981" style="stop-color:#28AFF4"/>
			<stop  offset="0.8016" style="stop-color:#1FC0EB"/>
			<stop  offset="0.8917" style="stop-color:#14D7E0"/>
			<stop  offset="0.9711" style="stop-color:#06F3D2"/>
			<stop  offset="1" style="stop-color:#00FFCC"/>
		</radialGradient>
		<circle fill="url(#SVGID_43_)" cx="-326.78" cy="-92.5" r="343.697"/>
	</g>
	<g>
		<radialGradient id="SVGID_44_" cx="-326.7793" cy="-92.4995" r="333.686" gradientUnits="userSpaceOnUse">
			<stop  offset="0" style="stop-color:#3399FF"/>
			<stop  offset="0.4041" style="stop-color:#329BFE"/>
			<stop  offset="0.5731" style="stop-color:#2EA2FA"/>
			<stop  offset="0.6981" style="stop-color:#28AFF4"/>
			<stop  offset="0.8016" style="stop-color:#1FC0EB"/>
			<stop  offset="0.8917" style="stop-color:#14D7E0"/>
			<stop  offset="0.9711" style="stop-color:#06F3D2"/>
			<stop  offset="1" style="stop-color:#00FFCC"/>
		</radialGradient>
		<circle fill="url(#SVGID_44_)" cx="-326.78" cy="-92.5" r="333.686"/>
	</g>
</g>
</svg>
