<?xml version="1.0" encoding="utf-8"?>
<!-- Generator: Adobe Illustrator 16.0.0, SVG Export Plug-In . SVG Version: 6.00 Build 0)  -->
<!DOCTYPE svg PUBLIC "-//W3C//DTD SVG 1.1//EN" "http://www.w3.org/Graphics/SVG/1.1/DTD/svg11.dtd">
<svg version="1.1" id="Layer_1" xmlns="http://www.w3.org/2000/svg" xmlns:xlink="http://www.w3.org/1999/xlink" x="0px" y="0px"
	 width="1020.473px" height="467.717px" viewBox="172.764 175.688 1020.473 467.717"
	 enable-background="new 172.764 175.688 1020.473 467.717" xml:space="preserve">
<g>
	<g>
		
			<radialGradient id="SVGID_1_" cx="-411.1157" cy="-520.9478" r="126.2883" gradientTransform="matrix(0.7133 -11.2042 9.4014 1.1249 4863.6216 -4597.7974)" gradientUnits="userSpaceOnUse">
			<stop  offset="0.6" style="stop-color:#1599FF"/>
			<stop  offset="1" style="stop-color:#00FFCC"/>
		</radialGradient>
		<path fill="url(#SVGID_1_)" d="M457.183-1710.536c394.364,47.188-124.343,993.3,65.082,1374.813
			C643.374-91.781,881.489-26.547,862.34,273.935c-17.26,271.25-639.002,170.004-765.012,370.736
			c-231.919,369.506-96.22,53.936-515.128,3.803c-646.471-77.367-1216.945-226.449-1167.903-996.904
			c24.528-385.258,463.233-1332.222,691.134-1559.321C-666.655-2134.861,133.929-1749.214,457.183-1710.536z"/>
	</g>
	<g>
		
			<radialGradient id="SVGID_2_" cx="-413.3032" cy="-523.4131" r="126.2883" gradientTransform="matrix(3.8803 -9.8187 8.4919 3.5743 5722.0083 -2764.5786)" gradientUnits="userSpaceOnUse">
			<stop  offset="0.6" style="stop-color:#1599FF"/>
			<stop  offset="1" style="stop-color:#00FFCC"/>
		</radialGradient>
		<path fill="url(#SVGID_2_)" d="M733.725-1375.469c356.213,149.932-401.297,853.778-333.058,1246.512
			c43.624,251.114,248.169,374.48,144.087,637.801c-93.932,237.712-647.829-22.664-823.508,122.308
			c-323.352,266.871-105.671,21.914-484.051-137.357c-583.925-245.792-1076.042-534.912-809.22-1210.1
			c133.426-337.619,816.172-1064.087,1094.938-1204.783C-198.306-2061.789,441.743-1498.366,733.725-1375.469z"/>
	</g>
	<g>
		
			<radialGradient id="SVGID_3_" cx="-416.1089" cy="-525.0425" r="126.2883" gradientTransform="matrix(6.4524 -7.7151 6.9371 5.5149 6001.3286 -891.5747)" gradientUnits="userSpaceOnUse">
			<stop  offset="0.6" style="stop-color:#1599FF"/>
			<stop  offset="1" style="stop-color:#00FFCC"/>
		</radialGradient>
		<path fill="url(#SVGID_3_)" d="M896.954-1000.442C1187.946-769.109,275.99-347.037,227.396,22.613
			c-31.08,236.351,125.332,402.5-47.729,609.4C23.463,818.8-421.211,434.743-627.474,516.306
			c-379.655,150.16-105.354-9.289-414.451-255.026c-477.008-379.228-855.521-772.096-411.826-1302.633
			c221.869-265.286,1070.213-728.005,1371.9-777.58C219.851-1868.507,658.432-1190.063,896.954-1000.442z"/>
	</g>
	<g>
		
			<radialGradient id="SVGID_4_" cx="-419.3315" cy="-525.6113" r="126.2883" gradientTransform="matrix(8.261 -5.1323 4.9231 6.8244 5726.3325 858.7144)" gradientUnits="userSpaceOnUse">
			<stop  offset="0.6" style="stop-color:#1599FF"/>
			<stop  offset="1" style="stop-color:#00FFCC"/>
		</radialGradient>
		<path fill="url(#SVGID_4_)" d="M942.493-620.663c206.512,286.265-769.478,414.301-920.994,731.395
			c-96.886,202.744,2.133,393.977-219.426,531.605C-397.917,766.595-704.738,301.841-921.5,318.379
			c-398.988,30.466-96.112-37.089-315.469-341.175c-338.519-469.272-580.785-923.822-12.723-1276.749
			c284.055-176.473,1212.057-358.219,1509.114-320.092C556.493-1581.505,773.219-855.31,942.493-620.663z"/>
	</g>
	<g>
		
			<radialGradient id="SVGID_5_" cx="-422.7085" cy="-524.9673" r="126.2883" gradientTransform="matrix(9.2162 -2.3297 2.6595 7.4444 4966.8052 2347.8901)" gradientUnits="userSpaceOnUse">
			<stop  offset="0.6" style="stop-color:#1599FF"/>
			<stop  offset="1" style="stop-color:#00FFCC"/>
		</radialGradient>
		<path fill="url(#SVGID_5_)" d="M876.329-268.794C987.889,43.48,36.146-108.772-196.799,133.228
			c-148.95,154.727-110.929,352.696-358.102,415.161C-778.02,604.796-932.464,105.59-1140.431,61.141
			c-382.806-81.792-79.479-59.41-197.976-391.123c-182.868-511.907-279.714-984.355,354.037-1144.561
			c316.901-80.105,1239.048,11.032,1506.627,126.277C789.848-1233.013,784.883-524.763,876.329-268.794z"/>
	</g>
	<g>
		
			<radialGradient id="SVGID_6_" cx="-425.9429" cy="-523.0601" r="126.2886" gradientTransform="matrix(9.3085 0.4362 0.3596 7.3801 3827.8481 3471.2808)" gradientUnits="userSpaceOnUse">
			<stop  offset="0.6" style="stop-color:#1599FF"/>
			<stop  offset="1" style="stop-color:#00FFCC"/>
		</radialGradient>
		<path fill="url(#SVGID_6_)" d="M713.436,27.606C728.52,337.182-120.148-58.95-407.913,93.684
			c-184,97.586-205.1,284.91-454.742,273.198c-225.354-10.552-227.062-498.916-409.301-595.467
			c-335.457-177.701-57.487-74.815-73.501-403.66c-24.716-507.48,19.907-956.19,660.004-926.204
			c320.073,14.998,1158.512,348.424,1376.348,524.538C908.739-857.788,701.073-226.15,713.436,27.606z"/>
	</g>
	<g>
		
			<radialGradient id="SVGID_7_" cx="-428.7197" cy="-519.9521" r="126.2883" gradientTransform="matrix(8.6022 2.9333 -1.7783 6.6942 2438.0083 4164.0991)" gradientUnits="userSpaceOnUse">
			<stop  offset="0.6" style="stop-color:#1599FF"/>
			<stop  offset="1" style="stop-color:#00FFCC"/>
		</radialGradient>
		<path fill="url(#SVGID_7_)" d="M475.757,248.002C401.162,528.804-280.963-57.129-594.509,0.656
			c-200.482,36.941-273.958,198.594-504.654,119.913c-208.257-71.007-69.874-507.945-213.058-644.033
			c-263.572-250.481-32.452-82.574,46.793-380.852c122.291-460.311,292.745-849.148,884.274-647.445
			c295.788,100.862,986.295,627.958,1140.048,844.882C912.651-489.947,536.902,17.832,475.757,248.002z"/>
	</g>
	<g>
		
			<radialGradient id="SVGID_8_" cx="-430.7407" cy="-515.8208" r="126.2881" gradientTransform="matrix(7.2242 4.9721 -3.5861 5.497 936.3677 4403.5288)" gradientUnits="userSpaceOnUse">
			<stop  offset="0.6" style="stop-color:#1599FF"/>
			<stop  offset="1" style="stop-color:#00FFCC"/>
		</radialGradient>
		<path fill="url(#SVGID_8_)" d="M189.745,380.035C39.319,610.617-432.258-99.444-742.787-133.473
			c-198.551-21.765-313.776,102.634-507.512-30.723c-174.899-120.367,80.086-473.065-15.148-633.816
			c-175.316-295.886-6.757-82.667,153.038-327.598c246.597-377.984,517.863-678.93,1014.638-337.026
			c248.406,170.967,744.708,830.732,826.68,1066.619C810.881-160.123,313.048,191.03,189.745,380.035z"/>
	</g>
	<g>
		
			<radialGradient id="SVGID_9_" cx="-431.7485" cy="-510.9565" r="126.2881" gradientTransform="matrix(5.3479 6.4178 -4.9378 3.933 -540.1284 4207.2085)" gradientUnits="userSpaceOnUse">
			<stop  offset="0.6" style="stop-color:#1599FF"/>
			<stop  offset="1" style="stop-color:#00FFCC"/>
		</radialGradient>
		<path fill="url(#SVGID_9_)" d="M-116.252,419.887c-207.126,164.978-445.724-598.49-727.107-713.753
			c-179.914-73.706-323.601,5.991-467.014-166.133c-129.476-155.367,210.684-400.916,167.475-570.607
			c-79.556-312.351,17.36-75.729,237.384-250.972c339.542-270.439,680.132-465.285,1047.882-23.971
			c183.889,220.676,460.083,945.948,469.322,1179.168C620.928,106.848,53.528,284.657-116.252,419.887z"/>
	</g>
	<g>
		
			<radialGradient id="SVGID_10_" cx="-431.5586" cy="-505.7407" r="126.2881" gradientTransform="matrix(3.1743 7.1971 -5.7568 2.1659 -1868.1401 3628.2925)" gradientUnits="userSpaceOnUse">
			<stop  offset="0.6" style="stop-color:#1599FF"/>
			<stop  offset="1" style="stop-color:#00FFCC"/>
		</radialGradient>
		<path fill="url(#SVGID_10_)" d="M-414.564,371.893c-241.481,90.852-246.339-656.687-477.113-836.59
			c-147.552-115.034-305.11-83.067-390.229-276.089c-76.856-174.236,312.445-300.747,320.574-464.215
			c14.944-300.898,37.983-62.938,294.498-159.44c395.857-148.925,771.029-230.003,989.317,264.904
			C431.634-852.063,482.69-128.387,424.502,82.576C366.311,293.547-216.624,297.423-414.564,371.893z"/>
	</g>
	<g>
		
			<radialGradient id="SVGID_11_" cx="-430.0781" cy="-500.6274" r="126.2883" gradientTransform="matrix(0.9131 7.2997 -6.0181 0.3627 -2947.2886 2748.0269)" gradientUnits="userSpaceOnUse">
			<stop  offset="0.6" style="stop-color:#1599FF"/>
			<stop  offset="1" style="stop-color:#00FFCC"/>
		</radialGradient>
		<path fill="url(#SVGID_11_)" d="M-680.49,247.486c-252.443,15.215-42.725-654.22-207.52-878.064
			c-105.365-143.129-262.247-157.61-286.724-353.381c-22.113-176.724,379.141-183.417,433.618-327.294
			c100.26-264.842,53.651-45.872,321.81-62.028c413.825-24.935,788.81,5.116,851.605,507.082
			C463.699-615.197,304.133,45.535,189.109,218.181C74.079,390.835-473.565,235.016-680.49,247.486z"/>
	</g>
	<g>
		
			<radialGradient id="SVGID_12_" cx="-427.3276" cy="-496.1001" r="126.2881" gradientTransform="matrix(-1.2363 6.7736 -5.7463 -1.3202 -3706.73 1666.4292)" gradientUnits="userSpaceOnUse">
			<stop  offset="0.6" style="stop-color:#1599FF"/>
			<stop  offset="1" style="stop-color:#00FFCC"/>
		</radialGradient>
		<path fill="url(#SVGID_12_)" d="M-894.15,63.635c-241.04-55.381,147.469-596.379,57.127-841.467
			c-57.759-156.711-200.694-212.521-167.526-394.178c29.923-163.987,408.039-60.329,500.355-174.032
			c169.913-209.305,63.45-26.338,319.493,32.495c395.131,90.79,738.085,220.11,653.077,685.897
			C425.867-394.738,86.874,152.186-70.455,275.058C-227.791,397.935-696.573,109.031-894.15,63.635z"/>
	</g>
	<g>
		
			<radialGradient id="SVGID_13_" cx="-423.4443" cy="-492.6323" r="126.2881" gradientTransform="matrix(-3.1006 5.716 -5.009 -2.7501 -4108.7192 492.2378)" gradientUnits="userSpaceOnUse">
			<stop  offset="0.6" style="stop-color:#1599FF"/>
			<stop  offset="1" style="stop-color:#00FFCC"/>
		</radialGradient>
		<path fill="url(#SVGID_13_)" d="M-1041.77-159.062c-210.114-115.359,309.205-492.714,294.756-736.445
			c-9.233-155.842-127.244-244.778-44.078-398.069c75.06-138.386,399.851,57.576,518.994-18.82
			c219.297-140.637,67.037-6.202,290.228,116.342c344.433,189.11,628.902,398.399,415.69,791.465
			C327.205-208.041-147.389,188.14-330.113,254.966C-512.845,321.795-869.542-64.502-1041.77-159.062z"/>
	</g>
</g>
</svg>
