<?xml version="1.0" encoding="utf-8"?>
<!-- Generator: Adobe Illustrator 16.0.0, SVG Export Plug-In . SVG Version: 6.00 Build 0)  -->
<!DOCTYPE svg PUBLIC "-//W3C//DTD SVG 1.1//EN" "http://www.w3.org/Graphics/SVG/1.1/DTD/svg11.dtd">
<svg version="1.1" id="Layer_1" xmlns="http://www.w3.org/2000/svg" xmlns:xlink="http://www.w3.org/1999/xlink" x="0px" y="0px"
	 width="1280px" height="800px" viewBox="43 9.546 1280 800" enable-background="new 43 9.546 1280 800" xml:space="preserve">
<g>
	<g>
		
			<radialGradient id="SVGID_1_" cx="-145.7627" cy="-239.2642" r="124.5127" gradientTransform="matrix(-5.9536 -6.9357 7.2757 -4.8415 727.2271 -2408.6372)" gradientUnits="userSpaceOnUse">
			<stop  offset="0.4694" style="stop-color:#1599FF"/>
			<stop  offset="0.5575" style="stop-color:#149FFC"/>
			<stop  offset="0.6765" style="stop-color:#10B0F3"/>
			<stop  offset="0.8132" style="stop-color:#0ACDE5"/>
			<stop  offset="0.962" style="stop-color:#02F4D2"/>
			<stop  offset="1" style="stop-color:#00FFCC"/>
		</radialGradient>
		<path fill="url(#SVGID_1_)" d="M-887.073-1102.844c500.321-332.93,1237.809-216.192,1647.215,260.75
			c409.398,476.951,335.704,1133.477-164.64,1466.41C95.174,957.25-642.295,840.505-1051.701,363.554
			C-1461.105-113.384-1387.407-769.919-887.073-1102.844z"/>
	</g>
	<g>
		
			<radialGradient id="SVGID_2_" cx="-145.7617" cy="-239.2642" r="124.5125" gradientTransform="matrix(-3.5937 -7.8255 8.2091 -2.339 1294.5396 -1939.5806)" gradientUnits="userSpaceOnUse">
			<stop  offset="0.4694" style="stop-color:#1599FF"/>
			<stop  offset="0.5575" style="stop-color:#149FFC"/>
			<stop  offset="0.6765" style="stop-color:#10B0F3"/>
			<stop  offset="0.8132" style="stop-color:#0ACDE5"/>
			<stop  offset="0.962" style="stop-color:#02F4D2"/>
			<stop  offset="1" style="stop-color:#00FFCC"/>
		</radialGradient>
		<path fill="url(#SVGID_2_)" d="M-593.246-1213.641c564.509-160.844,1222.481,145.004,1469.612,683.136
			C1123.487,7.632,866.208,574.26,301.677,735.101C-262.839,895.947-920.792,590.097-1167.919,51.958
			C-1415.049-486.169-1157.764-1052.805-593.246-1213.641z"/>
	</g>
	<g>
		
			<radialGradient id="SVGID_3_" cx="-145.7612" cy="-239.2642" r="124.5125" gradientTransform="matrix(-1.1262 -7.976 8.3669 0.1526 1691.9771 -1365.3481)" gradientUnits="userSpaceOnUse">
			<stop  offset="0.4694" style="stop-color:#1599FF"/>
			<stop  offset="0.5575" style="stop-color:#149FFC"/>
			<stop  offset="0.6765" style="stop-color:#10B0F3"/>
			<stop  offset="0.8132" style="stop-color:#0ACDE5"/>
			<stop  offset="0.962" style="stop-color:#02F4D2"/>
			<stop  offset="1" style="stop-color:#00FFCC"/>
		</radialGradient>
		<path fill="url(#SVGID_3_)" d="M-286.007-1232.378C289.354-1221.882,818.571-768.746,896.02-220.267
			c77.437,548.48-326.193,984.601-901.574,974.096C-580.924,743.333-1110.122,290.2-1187.565-258.285
			C-1265.014-806.759-861.375-1242.884-286.007-1232.378z"/>
	</g>
	<g>
		
			<radialGradient id="SVGID_4_" cx="-145.7617" cy="-239.2651" r="124.5127" gradientTransform="matrix(1.2303 -7.4362 7.8007 2.4226 1900.0044 -743.5435)" gradientUnits="userSpaceOnUse">
			<stop  offset="0.4694" style="stop-color:#1599FF"/>
			<stop  offset="0.5575" style="stop-color:#149FFC"/>
			<stop  offset="0.6765" style="stop-color:#10B0F3"/>
			<stop  offset="0.8132" style="stop-color:#0ACDE5"/>
			<stop  offset="0.962" style="stop-color:#02F4D2"/>
			<stop  offset="1" style="stop-color:#00FFCC"/>
		</radialGradient>
		<path fill="url(#SVGID_4_)" d="M7.416-1165.173C543.839-998.579,910.122-448.985,825.52,62.376
			c-84.615,511.359-588.049,790.849-1124.488,624.24C-835.4,520.02-1201.666-29.565-1117.056-540.93
			C-1032.455-1052.288-529.011-1331.78,7.416-1165.173z"/>
	</g>
	<g>
		
			<radialGradient id="SVGID_5_" cx="-145.7612" cy="-239.2651" r="124.5122" gradientTransform="matrix(3.285 -6.3099 6.6192 4.2967 1916.7935 -130.9653)" gradientUnits="userSpaceOnUse">
			<stop  offset="0.4694" style="stop-color:#1599FF"/>
			<stop  offset="0.5575" style="stop-color:#149FFC"/>
			<stop  offset="0.6765" style="stop-color:#10B0F3"/>
			<stop  offset="0.8132" style="stop-color:#0ACDE5"/>
			<stop  offset="0.962" style="stop-color:#02F4D2"/>
			<stop  offset="1" style="stop-color:#00FFCC"/>
		</radialGradient>
		<path fill="url(#SVGID_5_)" d="M263.251-1024.933C718.425-729.465,904.3-138.185,678.405,295.723
			C452.498,729.626-99.61,841.857-554.794,546.373c-455.18-295.472-641.042-886.739-415.139-1320.648
			C-744.04-1208.181-191.921-1320.413,263.251-1024.933z"/>
	</g>
	<g>
		
			<radialGradient id="SVGID_6_" cx="-145.7617" cy="-239.2651" r="124.5125" gradientTransform="matrix(4.8885 -4.7418 4.9742 5.6488 1756.9614 421.1206)" gradientUnits="userSpaceOnUse">
			<stop  offset="0.4694" style="stop-color:#1599FF"/>
			<stop  offset="0.5575" style="stop-color:#149FFC"/>
			<stop  offset="0.6765" style="stop-color:#10B0F3"/>
			<stop  offset="0.8132" style="stop-color:#0ACDE5"/>
			<stop  offset="0.962" style="stop-color:#02F4D2"/>
			<stop  offset="1" style="stop-color:#00FFCC"/>
		</radialGradient>
		<path fill="url(#SVGID_6_)" d="M462.914-829.689c342.058,388.446,346.841,967.688,10.677,1293.765
			C137.417,790.146-412.384,739.591-754.446,351.127c-342.063-388.45-346.837-967.677-10.666-1293.753
			C-428.95-1268.703,120.86-1218.145,462.914-829.689z"/>
	</g>
	<g>
		
			<radialGradient id="SVGID_7_" cx="-145.7612" cy="-239.2651" r="124.5127" gradientTransform="matrix(5.9424 -2.9022 3.0444 6.4078 1448.8501 870.8433)" gradientUnits="userSpaceOnUse">
			<stop  offset="0.4694" style="stop-color:#1599FF"/>
			<stop  offset="0.5575" style="stop-color:#149FFC"/>
			<stop  offset="0.6765" style="stop-color:#10B0F3"/>
			<stop  offset="0.8132" style="stop-color:#0ACDE5"/>
			<stop  offset="0.962" style="stop-color:#02F4D2"/>
			<stop  offset="1" style="stop-color:#00FFCC"/>
		</radialGradient>
		<path fill="url(#SVGID_7_)" d="M594.143-600.634C803.497-159.998,641.948,359.002,233.31,558.577
			c-408.645,199.564-909.622,4.151-1118.975-436.502c-209.357-440.642-47.805-959.626,360.84-1159.197
			C-116.189-1236.696,384.796-1041.278,594.143-600.634z"/>
	</g>
	<g>
		
			<radialGradient id="SVGID_8_" cx="-145.7612" cy="-239.2651" r="124.5122" gradientTransform="matrix(6.4032 -0.9701 1.0176 6.5588 1031.0688 1188.6128)" gradientUnits="userSpaceOnUse">
			<stop  offset="0.4694" style="stop-color:#1599FF"/>
			<stop  offset="0.5575" style="stop-color:#149FFC"/>
			<stop  offset="0.6765" style="stop-color:#10B0F3"/>
			<stop  offset="0.8132" style="stop-color:#0ACDE5"/>
			<stop  offset="0.962" style="stop-color:#02F4D2"/>
			<stop  offset="1" style="stop-color:#00FFCC"/>
		</radialGradient>
		<path fill="url(#SVGID_8_)" d="M651.521-360.061C721.499,90.96,421.272,510.67-19.054,577.38
			c-440.329,66.699-854.01-244.839-923.98-695.875c-69.979-451.026,230.246-870.72,670.577-937.426
			C167.867-1122.63,581.553-811.085,651.521-360.061z"/>
	</g>
	<g>
		
			<radialGradient id="SVGID_9_" cx="-145.7612" cy="-239.2642" r="124.5127" gradientTransform="matrix(6.2814 0.8827 -0.9259 6.1399 548.2974 1358.4448)" gradientUnits="userSpaceOnUse">
			<stop  offset="0.4694" style="stop-color:#1599FF"/>
			<stop  offset="0.5575" style="stop-color:#149FFC"/>
			<stop  offset="0.6765" style="stop-color:#10B0F3"/>
			<stop  offset="0.8132" style="stop-color:#0ACDE5"/>
			<stop  offset="0.962" style="stop-color:#02F4D2"/>
			<stop  offset="1" style="stop-color:#00FFCC"/>
		</radialGradient>
		<path fill="url(#SVGID_9_)" d="M636.359-129.371c-63.672,422.217-465.456,715.294-897.407,654.6
			c-431.951-60.706-730.5-452.177-666.816-874.405c63.673-422.223,465.451-715.286,897.406-654.587
			C401.489-943.068,700.042-551.589,636.359-129.371z"/>
	</g>
	<g>
		
			<radialGradient id="SVGID_10_" cx="-145.7612" cy="-239.2632" r="124.5122" gradientTransform="matrix(5.6362 2.5052 -2.628 5.2345 46.9888 1378.3276)" gradientUnits="userSpaceOnUse">
			<stop  offset="0.4694" style="stop-color:#1599FF"/>
			<stop  offset="0.5575" style="stop-color:#149FFC"/>
			<stop  offset="0.6765" style="stop-color:#10B0F3"/>
			<stop  offset="0.8132" style="stop-color:#0ACDE5"/>
			<stop  offset="0.962" style="stop-color:#02F4D2"/>
			<stop  offset="1" style="stop-color:#00FFCC"/>
		</radialGradient>
		<path fill="url(#SVGID_10_)" d="M556.019,72.663C375.299,432.619-85.402,584.769-472.982,412.496
			C-860.559,240.211-1028.253-191.24-847.52-551.202c180.722-359.961,641.415-512.1,1028.996-339.821
			C569.053-718.75,736.749-287.291,556.019,72.663z"/>
	</g>
	<g>
		
			<radialGradient id="SVGID_11_" cx="-145.7612" cy="-239.2632" r="124.5125" gradientTransform="matrix(4.5661 3.7791 -3.9643 3.9602 -428.7144 1259.1128)" gradientUnits="userSpaceOnUse">
			<stop  offset="0.4694" style="stop-color:#1599FF"/>
			<stop  offset="0.5575" style="stop-color:#149FFC"/>
			<stop  offset="0.6765" style="stop-color:#10B0F3"/>
			<stop  offset="0.8132" style="stop-color:#0ACDE5"/>
			<stop  offset="0.962" style="stop-color:#02F4D2"/>
			<stop  offset="1" style="stop-color:#00FFCC"/>
		</radialGradient>
		<path fill="url(#SVGID_11_)" d="M422.785,231.277C150.173,503.604-325.372,513.703-639.368,253.831
			C-953.358-6.05-986.911-437.478-714.285-709.807c272.615-272.331,748.148-282.422,1062.146-22.545
			C661.855-472.481,695.405-41.046,422.785,231.277z"/>
	</g>
	<g>
		
			<radialGradient id="SVGID_12_" cx="-145.7617" cy="-239.2632" r="124.5125" gradientTransform="matrix(3.1977 4.6252 -4.8519 2.4562 -840.5386 1022.5845)" gradientUnits="userSpaceOnUse">
			<stop  offset="0.4694" style="stop-color:#1599FF"/>
			<stop  offset="0.5575" style="stop-color:#149FFC"/>
			<stop  offset="0.6765" style="stop-color:#10B0F3"/>
			<stop  offset="0.8132" style="stop-color:#0ACDE5"/>
			<stop  offset="0.962" style="stop-color:#02F4D2"/>
			<stop  offset="1" style="stop-color:#00FFCC"/>
		</radialGradient>
		<path fill="url(#SVGID_12_)" d="M252.406,336.631c-333.648,168.9-782.391,47.986-1002.29-270.07
			c-219.891-318.063-127.684-712.816,205.978-881.715c333.653-168.903,782.383-47.985,1002.281,270.076
			C678.271-227.022,586.06,167.736,252.406,336.631z"/>
	</g>
	<g>
		
			<radialGradient id="SVGID_13_" cx="-145.7622" cy="-239.2632" r="124.5125" gradientTransform="matrix(1.6723 5.0075 -5.253 0.8694 -1158.8394 698.6616)" gradientUnits="userSpaceOnUse">
			<stop  offset="0.4694" style="stop-color:#1599FF"/>
			<stop  offset="0.5575" style="stop-color:#149FFC"/>
			<stop  offset="0.6765" style="stop-color:#10B0F3"/>
			<stop  offset="0.8132" style="stop-color:#0ACDE5"/>
			<stop  offset="0.962" style="stop-color:#02F4D2"/>
			<stop  offset="1" style="stop-color:#00FFCC"/>
		</radialGradient>
		<path fill="url(#SVGID_13_)" d="M62.468,384.236C-298.759,444.022-684.82,213.339-799.82-131.007
			c-114.99-344.351,84.61-671.964,445.849-731.744C7.26-922.539,393.309-691.856,508.307-347.505
			C623.305-3.16,423.699,324.457,62.468,384.236z"/>
	</g>
	<g>
		
			<radialGradient id="SVGID_14_" cx="-145.7622" cy="-239.2632" r="124.5127" gradientTransform="matrix(0.1325 4.9324 -5.1741 -0.6583 -1364.4253 322.1792)" gradientUnits="userSpaceOnUse">
			<stop  offset="0.4694" style="stop-color:#1599FF"/>
			<stop  offset="0.5575" style="stop-color:#149FFC"/>
			<stop  offset="0.6765" style="stop-color:#10B0F3"/>
			<stop  offset="0.8132" style="stop-color:#0ACDE5"/>
			<stop  offset="0.962" style="stop-color:#02F4D2"/>
			<stop  offset="1" style="stop-color:#00FFCC"/>
		</radialGradient>
		<path fill="url(#SVGID_14_)" d="M-129.254,374.883c-355.807-45.27-651.637-356.93-660.753-696.11
			c-9.105-339.181,271.938-577.444,627.753-532.166c355.812,45.271,651.63,356.928,660.743,696.11
			C507.603,181.896,226.554,420.16-129.254,374.883z"/>
	</g>
	<g>
		
			<radialGradient id="SVGID_15_" cx="-145.7622" cy="-239.2632" r="124.5127" gradientTransform="matrix(-1.2896 4.4445 -4.6623 -2.0022 -1449.2632 -70.4653)" gradientUnits="userSpaceOnUse">
			<stop  offset="0.4694" style="stop-color:#1599FF"/>
			<stop  offset="0.5575" style="stop-color:#149FFC"/>
			<stop  offset="0.6765" style="stop-color:#10B0F3"/>
			<stop  offset="0.8132" style="stop-color:#0ACDE5"/>
			<stop  offset="0.962" style="stop-color:#02F4D2"/>
			<stop  offset="1" style="stop-color:#00FFCC"/>
		</radialGradient>
		<path fill="url(#SVGID_15_)" d="M-306.323,314.136c-320.612-137.682-508.635-497.06-419.959-802.69
			c88.686-305.629,420.475-441.781,741.092-304.089C335.426-654.959,523.438-295.587,434.758,10.045
			C346.082,315.673,14.288,451.825-306.323,314.136z"/>
	</g>
	<g>
		
			<radialGradient id="SVGID_16_" cx="-145.7622" cy="-239.2642" r="124.5122" gradientTransform="matrix(-2.483 3.6198 -3.7973 -3.0634 -1416.2456 -444.5747)" gradientUnits="userSpaceOnUse">
			<stop  offset="0.4694" style="stop-color:#1599FF"/>
			<stop  offset="0.5575" style="stop-color:#149FFC"/>
			<stop  offset="0.6765" style="stop-color:#10B0F3"/>
			<stop  offset="0.8132" style="stop-color:#0ACDE5"/>
			<stop  offset="0.962" style="stop-color:#02F4D2"/>
			<stop  offset="1" style="stop-color:#00FFCC"/>
		</radialGradient>
		<path fill="url(#SVGID_16_)" d="M-454.923,211.462C-716.049,0.804-789.319-371.764-618.575-620.689
			c170.753-248.921,520.85-279.946,781.977-69.277c261.131,210.66,334.392,583.22,163.644,832.145
			C156.302,391.102-193.799,422.125-454.923,211.462z"/>
	</g>
	<g>
		
			<radialGradient id="SVGID_17_" cx="-145.7622" cy="-239.2632" r="124.5122" gradientTransform="matrix(-3.3655 2.5567 -2.6821 -3.7755 -1278.062 -769.9146)" gradientUnits="userSpaceOnUse">
			<stop  offset="0.4694" style="stop-color:#1599FF"/>
			<stop  offset="0.5575" style="stop-color:#149FFC"/>
			<stop  offset="0.6765" style="stop-color:#10B0F3"/>
			<stop  offset="0.8132" style="stop-color:#0ACDE5"/>
			<stop  offset="0.962" style="stop-color:#02F4D2"/>
			<stop  offset="1" style="stop-color:#00FFCC"/>
		</radialGradient>
		<path fill="url(#SVGID_17_)" d="M-564.813,79.093c-184.438-259.625-146.339-612.625,85.094-788.446
			c231.44-175.813,568.568-107.881,753.002,151.755c184.441,259.629,146.337,612.619-85.1,788.438
			C-43.249,406.659-380.379,338.722-564.813,79.093z"/>
	</g>
	<g>
		
			<radialGradient id="SVGID_18_" cx="-145.7622" cy="-239.2637" r="124.5125" gradientTransform="matrix(-3.8882 1.3655 -1.4324 -4.1072 -1055.2466 -1022.9185)" gradientUnits="userSpaceOnUse">
			<stop  offset="0.4694" style="stop-color:#1599FF"/>
			<stop  offset="0.5575" style="stop-color:#149FFC"/>
			<stop  offset="0.6765" style="stop-color:#10B0F3"/>
			<stop  offset="0.8132" style="stop-color:#0ACDE5"/>
			<stop  offset="0.962" style="stop-color:#02F4D2"/>
			<stop  offset="1" style="stop-color:#00FFCC"/>
		</radialGradient>
		<path fill="url(#SVGID_18_)" d="M-629.898-69.238c-98.501-282.435,38.401-587.516,305.78-681.416
			c267.382-93.893,563.986,58.94,662.481,341.384c98.503,282.438-38.401,587.51-305.783,681.408
			C-234.796,366.037-531.402,213.199-629.898-69.238z"/>
	</g>
	<g>
		
			<radialGradient id="SVGID_19_" cx="-145.7627" cy="-239.2661" r="124.5125" gradientTransform="matrix(-4.0368 0.1579 -0.1657 -4.0621 -773.8276 -1188.1685)" gradientUnits="userSpaceOnUse">
			<stop  offset="0.4694" style="stop-color:#1599FF"/>
			<stop  offset="0.5575" style="stop-color:#149FFC"/>
			<stop  offset="0.6765" style="stop-color:#10B0F3"/>
			<stop  offset="0.8132" style="stop-color:#0ACDE5"/>
			<stop  offset="0.962" style="stop-color:#02F4D2"/>
			<stop  offset="1" style="stop-color:#00FFCC"/>
		</radialGradient>
		<path fill="url(#SVGID_19_)" d="M-648.402-219.591c-11.393-279.339,204.408-514.595,482.006-525.458
			c277.599-10.854,511.872,206.784,523.258,486.129c11.395,279.343-204.406,514.59-482.006,525.45
			C-402.739,277.392-637.014,59.748-648.402-219.591z"/>
	</g>
	<g>
		
			<radialGradient id="SVGID_20_" cx="-145.7622" cy="-239.2671" r="124.5125" gradientTransform="matrix(-3.83 -0.9619 1.009 -3.6758 -462.6108 -1258.9575)" gradientUnits="userSpaceOnUse">
			<stop  offset="0.4694" style="stop-color:#1599FF"/>
			<stop  offset="0.5575" style="stop-color:#149FFC"/>
			<stop  offset="0.6765" style="stop-color:#10B0F3"/>
			<stop  offset="0.8132" style="stop-color:#0ACDE5"/>
			<stop  offset="0.962" style="stop-color:#02F4D2"/>
			<stop  offset="1" style="stop-color:#00FFCC"/>
		</radialGradient>
		<path fill="url(#SVGID_20_)" d="M-622.653-359.025c69.388-252.771,339.146-404.062,602.523-337.919
			c263.375,66.151,420.635,324.679,351.239,577.452C261.722,133.282-8.034,284.566-271.412,218.419
			C-534.786,152.276-692.045-106.255-622.653-359.025z"/>
	</g>
	<g>
		
			<radialGradient id="SVGID_21_" cx="-145.7632" cy="-239.2661" r="124.5127" gradientTransform="matrix(-3.3151 -1.9062 1.9996 -3.0095 -150.5444 -1237.1831)" gradientUnits="userSpaceOnUse">
			<stop  offset="0.4694" style="stop-color:#1599FF"/>
			<stop  offset="0.5575" style="stop-color:#149FFC"/>
			<stop  offset="0.6765" style="stop-color:#10B0F3"/>
			<stop  offset="0.8132" style="stop-color:#0ACDE5"/>
			<stop  offset="0.962" style="stop-color:#02F4D2"/>
			<stop  offset="1" style="stop-color:#00FFCC"/>
		</radialGradient>
		<path fill="url(#SVGID_21_)" d="M-558.544-476.607c137.509-206.951,433.788-268.457,661.758-137.376
			C331.181-482.895,404.517-208.868,266.999-1.916C129.49,205.04-166.785,266.539-394.755,135.455
			C-622.723,4.374-696.058-269.657-558.544-476.607z"/>
	</g>
	<g>
		
			<radialGradient id="SVGID_22_" cx="-145.7622" cy="-239.2661" r="124.5127" gradientTransform="matrix(-2.5617 -2.6095 2.7374 -2.1433 135.7974 -1132.4517)" gradientUnits="userSpaceOnUse">
			<stop  offset="0.4694" style="stop-color:#1599FF"/>
			<stop  offset="0.5575" style="stop-color:#149FFC"/>
			<stop  offset="0.6765" style="stop-color:#10B0F3"/>
			<stop  offset="0.8132" style="stop-color:#0ACDE5"/>
			<stop  offset="0.962" style="stop-color:#02F4D2"/>
			<stop  offset="1" style="stop-color:#00FFCC"/>
		</radialGradient>
		<path fill="url(#SVGID_22_)" d="M-464.736-564.177c188.242-147.388,483.65-121.401,659.811,58.043
			C371.231-326.685,361.441-61.736,173.19,85.649C-15.053,233.041-310.455,207.05-486.616,27.603
			C-662.775-151.841-652.982-416.792-464.736-564.177z"/>
	</g>
	<g>
		
			<radialGradient id="SVGID_23_" cx="-145.7622" cy="-239.2661" r="124.5122" gradientTransform="matrix(-1.6538 -3.0322 3.1808 -1.1676 374.2427 -960.6118)" gradientUnits="userSpaceOnUse">
			<stop  offset="0.4694" style="stop-color:#1599FF"/>
			<stop  offset="0.5575" style="stop-color:#149FFC"/>
			<stop  offset="0.6765" style="stop-color:#10B0F3"/>
			<stop  offset="0.8132" style="stop-color:#0ACDE5"/>
			<stop  offset="0.962" style="stop-color:#02F4D2"/>
			<stop  offset="1" style="stop-color:#00FFCC"/>
		</radialGradient>
		<path fill="url(#SVGID_23_)" d="M-351.684-616.81c218.733-80.29,488.246,23.653,601.971,232.165
			C364.005-176.129,278.882,57.991,60.14,138.278c-218.736,80.293-488.241-23.652-601.965-232.167
			C-655.548-302.4-570.421-536.522-351.684-616.81z"/>
	</g>
	<g>
		
			<radialGradient id="SVGID_24_" cx="-145.7642" cy="-239.2671" r="124.5127" gradientTransform="matrix(-0.6813 -3.1619 3.3169 -0.1744 548.5337 -741.8765)" gradientUnits="userSpaceOnUse">
			<stop  offset="0.4694" style="stop-color:#1599FF"/>
			<stop  offset="0.5575" style="stop-color:#149FFC"/>
			<stop  offset="0.6765" style="stop-color:#10B0F3"/>
			<stop  offset="0.8132" style="stop-color:#0ACDE5"/>
			<stop  offset="0.962" style="stop-color:#02F4D2"/>
			<stop  offset="1" style="stop-color:#00FFCC"/>
		</radialGradient>
		<path fill="url(#SVGID_24_)" d="M-230.605-632.959c228.088-11.991,450.977,154.551,497.833,371.981
			C314.076-43.546,167.159,142.438-60.936,154.423C-289.028,166.416-511.909-0.125-558.762-217.559
			C-605.617-434.987-458.697-620.971-230.605-632.959z"/>
	</g>
	<g>
		
			<radialGradient id="SVGID_25_" cx="-145.7622" cy="-239.2666" r="124.5125" gradientTransform="matrix(0.2675 -3.0121 3.1597 0.7505 649.2466 -498.7563)" gradientUnits="userSpaceOnUse">
			<stop  offset="0.4694" style="stop-color:#1599FF"/>
			<stop  offset="0.5575" style="stop-color:#149FFC"/>
			<stop  offset="0.6765" style="stop-color:#10B0F3"/>
			<stop  offset="0.8132" style="stop-color:#0ACDE5"/>
			<stop  offset="0.962" style="stop-color:#02F4D2"/>
			<stop  offset="1" style="stop-color:#00FFCC"/>
		</radialGradient>
		<path fill="url(#SVGID_25_)" d="M-112.458-614.309c217.282,51.607,378.515,261.356,360.12,468.486
			C229.26,61.306,38.208,187.384-179.079,135.77C-396.365,84.164-557.59-125.582-539.194-332.714
			C-520.798-539.842-329.744-665.919-112.458-614.309z"/>
	</g>
	<g>
		
			<radialGradient id="SVGID_26_" cx="-145.7612" cy="-239.2656" r="124.5125" gradientTransform="matrix(1.1142 -2.6189 2.7473 1.5341 673.981 -253.9487)" gradientUnits="userSpaceOnUse">
			<stop  offset="0.4694" style="stop-color:#1599FF"/>
			<stop  offset="0.5575" style="stop-color:#149FFC"/>
			<stop  offset="0.6765" style="stop-color:#10B0F3"/>
			<stop  offset="0.8132" style="stop-color:#0ACDE5"/>
			<stop  offset="0.962" style="stop-color:#02F4D2"/>
			<stop  offset="1" style="stop-color:#00FFCC"/>
		</radialGradient>
		<path fill="url(#SVGID_26_)" d="M-7.036-565.357C181.885-459.863,272.927-228.345,196.31-48.25
			C119.687,131.841-95.574,192.319-284.498,86.817c-188.925-105.495-279.96-337.008-203.341-517.104
			C-411.221-610.379-195.958-670.856-7.036-565.357z"/>
	</g>
	<g>
		
			<radialGradient id="SVGID_27_" cx="-145.7612" cy="-239.2661" r="124.5125" gradientTransform="matrix(1.7953 -2.0362 2.136 2.1218 626.9995 -28.3989)" gradientUnits="userSpaceOnUse">
			<stop  offset="0.4694" style="stop-color:#1599FF"/>
			<stop  offset="0.5575" style="stop-color:#149FFC"/>
			<stop  offset="0.6765" style="stop-color:#10B0F3"/>
			<stop  offset="0.8132" style="stop-color:#0ACDE5"/>
			<stop  offset="0.962" style="stop-color:#02F4D2"/>
			<stop  offset="1" style="stop-color:#00FFCC"/>
		</radialGradient>
		<path fill="url(#SVGID_27_)" d="M77.772-492.8c146.885,145.906,165.879,377.7,42.424,517.723
			C-3.263,164.941-222.417,160.174-369.302,14.26c-146.888-145.908-165.878-377.696-42.421-517.72
			C-288.268-643.48-69.113-638.711,77.772-492.8z"/>
	</g>
	<g>
		
			<radialGradient id="SVGID_28_" cx="-145.7612" cy="-239.2661" r="124.5125" gradientTransform="matrix(2.2668 -1.3293 1.3944 2.48 518.3003 160.3481)" gradientUnits="userSpaceOnUse">
			<stop  offset="0.4694" style="stop-color:#1599FF"/>
			<stop  offset="0.5575" style="stop-color:#149FFC"/>
			<stop  offset="0.6765" style="stop-color:#10B0F3"/>
			<stop  offset="0.8132" style="stop-color:#0ACDE5"/>
			<stop  offset="0.962" style="stop-color:#02F4D2"/>
			<stop  offset="1" style="stop-color:#00FFCC"/>
		</radialGradient>
		<path fill="url(#SVGID_28_)" d="M136.487-404.78c95.89,170.538,47.258,382.892-108.625,474.303
			c-155.885,91.406-359.986,27.263-455.875-143.282c-95.893-170.54-47.258-382.888,108.626-474.299
			C-163.505-639.467,40.598-575.323,136.487-404.78z"/>
	</g>
	<g>
		
			<radialGradient id="SVGID_29_" cx="-145.7622" cy="-239.2661" r="124.5122" gradientTransform="matrix(2.5063 -0.5686 0.5965 2.5975 362.2876 299.3413)" gradientUnits="userSpaceOnUse">
			<stop  offset="0.4694" style="stop-color:#1599FF"/>
			<stop  offset="0.5575" style="stop-color:#149FFC"/>
			<stop  offset="0.6765" style="stop-color:#10B0F3"/>
			<stop  offset="0.8132" style="stop-color:#0ACDE5"/>
			<stop  offset="0.962" style="stop-color:#02F4D2"/>
			<stop  offset="1" style="stop-color:#00FFCC"/>
		</radialGradient>
		<path fill="url(#SVGID_29_)" d="M166.305-310.069C207.324-131.45,100.86,45.051-71.49,84.154
			c-172.351,39.099-345.321-73.998-386.336-252.623c-41.021-178.621,65.443-355.116,237.795-394.22
			C-47.683-601.791,125.288-488.692,166.305-310.069z"/>
	</g>
	<g>
		
			<radialGradient id="SVGID_30_" cx="-145.7617" cy="-239.2661" r="124.5125" gradientTransform="matrix(2.5128 0.1766 -0.1853 2.4845 176.1772 380.9292)" gradientUnits="userSpaceOnUse">
			<stop  offset="0.4694" style="stop-color:#1599FF"/>
			<stop  offset="0.5575" style="stop-color:#149FFC"/>
			<stop  offset="0.6765" style="stop-color:#10B0F3"/>
			<stop  offset="0.8132" style="stop-color:#0ACDE5"/>
			<stop  offset="0.962" style="stop-color:#02F4D2"/>
			<stop  offset="1" style="stop-color:#00FFCC"/>
		</radialGradient>
		<path fill="url(#SVGID_30_)" d="M167.113-217.274C154.372-46.427,3.964,82.229-168.833,70.083
			c-172.795-12.149-302.546-160.492-289.8-331.344c12.74-170.85,163.146-299.5,335.944-287.355
			C50.107-536.469,179.857-388.125,167.113-217.274z"/>
	</g>
	<g>
		
			<radialGradient id="SVGID_31_" cx="-145.7612" cy="-239.2656" r="124.5125" gradientTransform="matrix(2.3053 0.8445 -0.8859 2.1699 -21.6987 403.0005)" gradientUnits="userSpaceOnUse">
			<stop  offset="0.4694" style="stop-color:#1599FF"/>
			<stop  offset="0.5575" style="stop-color:#149FFC"/>
			<stop  offset="0.6765" style="stop-color:#10B0F3"/>
			<stop  offset="0.8132" style="stop-color:#0ACDE5"/>
			<stop  offset="0.962" style="stop-color:#02F4D2"/>
			<stop  offset="1" style="stop-color:#00FFCC"/>
		</radialGradient>
		<path fill="url(#SVGID_31_)" d="M141.272-134.119C80.355,15.093-97.539,88.98-256.063,30.91
			c-158.522-58.073-237.65-226.108-176.727-375.322c60.916-149.215,238.807-223.097,397.333-165.027
			C123.066-451.369,202.192-283.333,141.272-134.119z"/>
	</g>
	<g>
		
			<radialGradient id="SVGID_32_" cx="-145.7622" cy="-239.2661" r="124.5125" gradientTransform="matrix(1.9192 1.3846 -1.4525 1.6972 -213.5425 368.6553)" gradientUnits="userSpaceOnUse">
			<stop  offset="0.4694" style="stop-color:#1599FF"/>
			<stop  offset="0.5575" style="stop-color:#149FFC"/>
			<stop  offset="0.6765" style="stop-color:#10B0F3"/>
			<stop  offset="0.8132" style="stop-color:#0ACDE5"/>
			<stop  offset="0.962" style="stop-color:#02F4D2"/>
			<stop  offset="1" style="stop-color:#00FFCC"/>
		</radialGradient>
		<path fill="url(#SVGID_32_)" d="M93.209-66.86C-6.674,49.852-194.637,67.28-326.617-27.937
			c-131.977-95.218-157.998-267.019-58.109-383.731c99.883-116.715,287.842-134.139,419.824-38.923
			C167.077-355.375,193.096-183.573,93.209-66.86z"/>
	</g>
	<g>
		
			<radialGradient id="SVGID_33_" cx="-145.7622" cy="-239.2661" r="124.5125" gradientTransform="matrix(1.4025 1.7619 -1.8483 1.12 -383.564 285.5371)" gradientUnits="userSpaceOnUse">
			<stop  offset="0.4694" style="stop-color:#1599FF"/>
			<stop  offset="0.5575" style="stop-color:#149FFC"/>
			<stop  offset="0.6765" style="stop-color:#10B0F3"/>
			<stop  offset="0.8132" style="stop-color:#0ACDE5"/>
			<stop  offset="0.962" style="stop-color:#02F4D2"/>
			<stop  offset="1" style="stop-color:#00FFCC"/>
		</radialGradient>
		<path fill="url(#SVGID_33_)" d="M28.869-19.881c-127.1,77.018-308.321,41.234-404.767-79.928
			c-96.443-121.163-71.593-281.819,55.512-358.835c127.101-77.02,308.317-41.234,404.765,79.928
			C180.823-257.555,155.972-96.899,28.869-19.881z"/>
	</g>
	<g>
		
			<radialGradient id="SVGID_34_" cx="-145.7607" cy="-239.2661" r="124.5125" gradientTransform="matrix(0.8099 1.9579 -2.0539 0.496 -519.146 164.7954)" gradientUnits="userSpaceOnUse">
			<stop  offset="0.4694" style="stop-color:#1599FF"/>
			<stop  offset="0.5575" style="stop-color:#149FFC"/>
			<stop  offset="0.6765" style="stop-color:#10B0F3"/>
			<stop  offset="0.8132" style="stop-color:#0ACDE5"/>
			<stop  offset="0.962" style="stop-color:#02F4D2"/>
			<stop  offset="1" style="stop-color:#00FFCC"/>
		</radialGradient>
		<path fill="url(#SVGID_34_)" d="M-44.92,4.525C-186.16,38.63-345.807-42.869-401.5-177.509
			c-55.691-134.641,13.658-271.437,154.901-305.538c141.241-34.106,300.883,47.394,356.578,182.035
			C165.671-166.373,96.323-29.579-44.92,4.525z"/>
	</g>
</g>
</svg>
