<?xml version="1.0" encoding="utf-8"?>
<!-- Generator: Adobe Illustrator 16.0.0, SVG Export Plug-In . SVG Version: 6.00 Build 0)  -->
<!DOCTYPE svg PUBLIC "-//W3C//DTD SVG 1.1//EN" "http://www.w3.org/Graphics/SVG/1.1/DTD/svg11.dtd">
<svg version="1.1" id="Layer_1" xmlns="http://www.w3.org/2000/svg" xmlns:xlink="http://www.w3.org/1999/xlink" x="0px" y="0px"
	 width="1020.473px" height="467.717px" viewBox="172.764 175.688 1020.473 467.717"
	 enable-background="new 172.764 175.688 1020.473 467.717" xml:space="preserve">
<g>
	<g>
		
			<radialGradient id="SVGID_1_" cx="-556.8926" cy="-513.9097" r="126.2883" gradientTransform="matrix(0.7133 -11.2042 9.4014 1.1249 4931.4341 -5647.6333)" gradientUnits="userSpaceOnUse">
			<stop  offset="0.5286" style="stop-color:#155CFF"/>
			<stop  offset="0.5884" style="stop-color:#1462FD"/>
			<stop  offset="0.6654" style="stop-color:#1272F8"/>
			<stop  offset="0.7518" style="stop-color:#0F8CF0"/>
			<stop  offset="0.845" style="stop-color:#0AB1E4"/>
			<stop  offset="0.9427" style="stop-color:#04E0D6"/>
			<stop  offset="1" style="stop-color:#00FFCC"/>
		</radialGradient>
		<path fill="url(#SVGID_1_)" d="M487.187-1119.131c394.364,47.182-124.343,993.288,65.077,1374.787
			C673.355,499.614,911.465,564.849,892.342,865.32c-17.268,271.236-639.011,169.986-765.025,370.751
			c-231.949,369.489-96.215,53.911-515.109,3.781c-646.512-77.356-1216.969-226.44-1167.911-996.919
			c24.501-385.231,463.255-1332.197,691.132-1559.295C-636.654-1543.466,163.916-1157.841,487.187-1119.131z"/>
	</g>
	<g>
		
			<radialGradient id="SVGID_2_" cx="-555.3647" cy="-494.4258" r="126.2883" gradientTransform="matrix(3.8803 -9.8187 8.4919 3.5743 6057.0942 -3671.6646)" gradientUnits="userSpaceOnUse">
			<stop  offset="0.5286" style="stop-color:#155CFF"/>
			<stop  offset="0.5884" style="stop-color:#1462FD"/>
			<stop  offset="0.6654" style="stop-color:#1272F8"/>
			<stop  offset="0.7518" style="stop-color:#0F8CF0"/>
			<stop  offset="0.845" style="stop-color:#0AB1E4"/>
			<stop  offset="0.9427" style="stop-color:#04E0D6"/>
			<stop  offset="1" style="stop-color:#00FFCC"/>
		</radialGradient>
		<path fill="url(#SVGID_2_)" d="M763.723-784.064C1119.936-634.137,362.43,69.705,430.668,462.424
			c43.602,251.125,248.142,374.49,144.088,637.807c-93.937,237.697-647.831-22.682-823.523,122.317
			c-323.375,266.85-105.66,21.893-484.026-137.371c-583.967-245.793-1076.067-534.91-809.224-1210.114
			c133.395-337.604,816.187-1064.06,1094.929-1204.761C-168.307-1470.394,471.734-906.993,763.723-784.064z"/>
	</g>
	<g>
		
			<radialGradient id="SVGID_3_" cx="-549.0112" cy="-475.6274" r="126.2883" gradientTransform="matrix(6.4524 -7.7151 6.9371 5.5149 6546.0786 -1598.0552)" gradientUnits="userSpaceOnUse">
			<stop  offset="0.5286" style="stop-color:#155CFF"/>
			<stop  offset="0.5884" style="stop-color:#1462FD"/>
			<stop  offset="0.6654" style="stop-color:#1272F8"/>
			<stop  offset="0.7518" style="stop-color:#0F8CF0"/>
			<stop  offset="0.845" style="stop-color:#0AB1E4"/>
			<stop  offset="0.9427" style="stop-color:#04E0D6"/>
			<stop  offset="1" style="stop-color:#00FFCC"/>
		</radialGradient>
		<path fill="url(#SVGID_3_)" d="M926.948-409.038C1217.942-177.708,305.991,244.36,257.399,613.997
			c-31.103,236.354,125.304,402.501-47.73,609.406C53.464,1410.175-391.207,1026.115-597.49,1107.7
			c-379.67,150.135-105.337-9.305-414.424-255.032c-477.047-379.241-855.545-772.101-411.825-1302.646
			c221.835-265.281,1070.22-727.977,1371.886-777.563C249.848-1277.113,688.428-598.689,926.948-409.038z"/>
	</g>
	<g>
		
			<radialGradient id="SVGID_4_" cx="-537.979" cy="-459.3252" r="126.2881" gradientTransform="matrix(8.261 -5.1323 4.9231 6.8244 6410.145 388.812)" gradientUnits="userSpaceOnUse">
			<stop  offset="0.5286" style="stop-color:#155CFF"/>
			<stop  offset="0.5884" style="stop-color:#1462FD"/>
			<stop  offset="0.6654" style="stop-color:#1272F8"/>
			<stop  offset="0.7518" style="stop-color:#0F8CF0"/>
			<stop  offset="0.845" style="stop-color:#0AB1E4"/>
			<stop  offset="0.9427" style="stop-color:#04E0D6"/>
			<stop  offset="1" style="stop-color:#00FFCC"/>
		</radialGradient>
		<path fill="url(#SVGID_4_)" d="M972.481-29.26C1178.997,257,203.012,385.036,51.502,702.119
			c-96.909,202.74,2.106,393.971-219.43,531.61c-199.986,124.244-506.802-340.511-723.589-323.961
			c-398.996,30.438-96.092-37.099-315.443-341.173c-338.552-469.294-580.805-923.832-12.719-1276.76
			c284.022-176.478,1212.055-358.191,1509.096-320.08C586.489-990.11,803.219-263.934,972.481-29.26z"/>
	</g>
	<g>
		
			<radialGradient id="SVGID_5_" cx="-522.8652" cy="-447.2554" r="126.2883" gradientTransform="matrix(9.2162 -2.3297 2.6595 7.4444 5713.188 2127.4292)" gradientUnits="userSpaceOnUse">
			<stop  offset="0.5286" style="stop-color:#155CFF"/>
			<stop  offset="0.5884" style="stop-color:#1462FD"/>
			<stop  offset="0.6654" style="stop-color:#1272F8"/>
			<stop  offset="0.7518" style="stop-color:#0F8CF0"/>
			<stop  offset="0.845" style="stop-color:#0AB1E4"/>
			<stop  offset="0.9427" style="stop-color:#04E0D6"/>
			<stop  offset="1" style="stop-color:#00FFCC"/>
		</radialGradient>
		<path fill="url(#SVGID_5_)" d="M906.313,322.604C1017.877,634.876,66.141,482.626-166.795,724.617
			c-148.972,154.718-110.953,352.684-358.107,415.165c-223.111,56.397-377.551-442.811-585.544-487.255
			c-382.805-81.818-79.458-59.413-197.951-391.113c-182.893-511.936-279.73-984.37,354.044-1144.57
			C-637.483-963.275,284.684-872.1,552.252-756.874C819.842-641.618,814.887,66.616,906.313,322.604z"/>
	</g>
	<g>
		
			<radialGradient id="SVGID_6_" cx="-504.6978" cy="-440.9248" r="126.2881" gradientTransform="matrix(9.3085 0.4362 0.3596 7.3801 4561.395 3490.8511)" gradientUnits="userSpaceOnUse">
			<stop  offset="0.5286" style="stop-color:#155CFF"/>
			<stop  offset="0.5884" style="stop-color:#1462FD"/>
			<stop  offset="0.6654" style="stop-color:#1272F8"/>
			<stop  offset="0.7518" style="stop-color:#0F8CF0"/>
			<stop  offset="0.845" style="stop-color:#0AB1E4"/>
			<stop  offset="0.9427" style="stop-color:#04E0D6"/>
			<stop  offset="1" style="stop-color:#00FFCC"/>
		</radialGradient>
		<path fill="url(#SVGID_6_)" d="M743.418,619c15.088,309.576-833.574-86.554-1121.329,66.075
			c-184.017,97.572-205.117,284.891-454.747,273.199c-225.345-10.559-227.048-498.922-409.313-595.477
			c-335.448-177.724-57.466-74.812-73.481-403.644c-24.731-507.513,19.897-956.208,660.014-926.21
			C-335.39-952.079,503.057-618.614,720.889-442.52C938.731-266.393,731.079,365.231,743.418,619z"/>
	</g>
	<g>
		
			<radialGradient id="SVGID_7_" cx="-484.8809" cy="-441.4463" r="126.2883" gradientTransform="matrix(8.6022 2.9333 -1.7783 6.6942 3090.7192 4394.6851)" gradientUnits="userSpaceOnUse">
			<stop  offset="0.5286" style="stop-color:#155CFF"/>
			<stop  offset="0.5884" style="stop-color:#1462FD"/>
			<stop  offset="0.6654" style="stop-color:#1272F8"/>
			<stop  offset="0.7518" style="stop-color:#0F8CF0"/>
			<stop  offset="0.845" style="stop-color:#0AB1E4"/>
			<stop  offset="0.9427" style="stop-color:#04E0D6"/>
			<stop  offset="1" style="stop-color:#00FFCC"/>
		</radialGradient>
		<path fill="url(#SVGID_7_)" d="M505.738,839.393c-74.592,280.804-756.711-305.127-1070.246-247.344
			c-200.494,36.923-273.969,198.572-504.66,119.913c-208.247-71.012-69.859-507.947-213.066-644.046
			c-263.559-250.499-32.434-82.564,46.807-380.832c122.286-460.344,292.741-849.168,884.286-647.448
			C-55.371-859.526,635.135-332.393,788.887-115.49C942.641,101.446,566.908,609.216,505.738,839.393z"/>
	</g>
	<g>
		
			<radialGradient id="SVGID_8_" cx="-465.1021" cy="-449.395" r="126.2883" gradientTransform="matrix(7.2242 4.9721 -3.5861 5.497 1452.8052 4800.6304)" gradientUnits="userSpaceOnUse">
			<stop  offset="0.5286" style="stop-color:#155CFF"/>
			<stop  offset="0.5884" style="stop-color:#1462FD"/>
			<stop  offset="0.6654" style="stop-color:#1272F8"/>
			<stop  offset="0.7518" style="stop-color:#0F8CF0"/>
			<stop  offset="0.845" style="stop-color:#0AB1E4"/>
			<stop  offset="0.9427" style="stop-color:#04E0D6"/>
			<stop  offset="1" style="stop-color:#00FFCC"/>
		</radialGradient>
		<path fill="url(#SVGID_8_)" d="M219.726,971.421C69.303,1202.006-402.27,491.95-712.789,457.921
			c-198.557-21.784-313.779,102.612-507.517-30.724c-174.888-120.369,80.101-473.063-15.152-633.831
			c-175.297-295.897-6.742-82.653,153.046-327.576c246.602-378.015,517.864-678.947,1014.649-337.025
			C180.633-700.294,676.922-40.497,758.901,195.372C840.872,431.269,343.054,782.417,219.726,971.421z"/>
	</g>
	<g>
		
			<radialGradient id="SVGID_9_" cx="-447.1997" cy="-464.7163" r="126.2883" gradientTransform="matrix(5.3479 6.4178 -4.9378 3.933 -199.187 4715.896)" gradientUnits="userSpaceOnUse">
			<stop  offset="0.5286" style="stop-color:#155CFF"/>
			<stop  offset="0.5884" style="stop-color:#1462FD"/>
			<stop  offset="0.6654" style="stop-color:#1272F8"/>
			<stop  offset="0.7518" style="stop-color:#0F8CF0"/>
			<stop  offset="0.845" style="stop-color:#0AB1E4"/>
			<stop  offset="0.9427" style="stop-color:#04E0D6"/>
			<stop  offset="1" style="stop-color:#00FFCC"/>
		</radialGradient>
		<path fill="url(#SVGID_9_)" d="M-86.27,1011.271c-207.124,164.981-445.719-598.481-727.094-713.742
			c-179.914-73.724-323.598,5.97-467.018-166.136c-129.464-155.365,210.697-400.909,167.475-570.622
			c-79.535-312.355,17.37-75.713,237.384-250.949c339.556-270.466,680.139-465.301,1047.893-23.967
			C356.257-493.496,632.431,231.802,641.682,465.008C650.916,698.238,83.533,876.048-86.27,1011.271z"/>
	</g>
	<g>
		
			<radialGradient id="SVGID_10_" cx="-433.0034" cy="-486.6602" r="126.2881" gradientTransform="matrix(3.1743 7.1971 -5.7568 2.1659 -1723.7183 4188.7534)" gradientUnits="userSpaceOnUse">
			<stop  offset="0.5286" style="stop-color:#155CFF"/>
			<stop  offset="0.5884" style="stop-color:#1462FD"/>
			<stop  offset="0.6654" style="stop-color:#1272F8"/>
			<stop  offset="0.7518" style="stop-color:#0F8CF0"/>
			<stop  offset="0.845" style="stop-color:#0AB1E4"/>
			<stop  offset="0.9427" style="stop-color:#04E0D6"/>
			<stop  offset="1" style="stop-color:#00FFCC"/>
		</radialGradient>
		<path fill="url(#SVGID_10_)" d="M-384.58,963.273c-241.48,90.856-246.337-656.678-477.104-836.576
			c-147.547-115.05-305.102-83.085-390.233-276.092c-76.846-174.232,312.456-300.738,320.579-464.228
			c14.965-300.898,37.988-62.922,294.492-159.42c395.878-148.945,771.04-230.016,989.326,264.91
			C461.638-260.682,512.667,463.01,454.494,673.964C396.298,884.935-186.621,888.818-384.58,963.273z"/>
	</g>
	<g>
		
			<radialGradient id="SVGID_11_" cx="-424.1704" cy="-513.7983" r="126.2883" gradientTransform="matrix(0.9131 7.2997 -6.0181 0.3627 -3001.9604 3301.062)" gradientUnits="userSpaceOnUse">
			<stop  offset="0.5286" style="stop-color:#155CFF"/>
			<stop  offset="0.5884" style="stop-color:#1462FD"/>
			<stop  offset="0.6654" style="stop-color:#1272F8"/>
			<stop  offset="0.7518" style="stop-color:#0F8CF0"/>
			<stop  offset="0.845" style="stop-color:#0AB1E4"/>
			<stop  offset="0.9427" style="stop-color:#04E0D6"/>
			<stop  offset="1" style="stop-color:#00FFCC"/>
		</radialGradient>
		<path fill="url(#SVGID_11_)" d="M-650.503,838.865c-252.443,15.219-42.725-654.211-207.515-878.05
			c-105.355-143.142-262.233-157.624-286.726-353.385c-22.105-176.717,379.147-183.405,433.625-327.303
			c100.28-264.837,53.652-45.856,321.798-62.013c413.851-24.947,788.823,5.108,851.613,507.09
			C493.705-23.812,334.108,636.925,219.1,809.569C104.067,982.22-443.564,826.412-650.503,838.865z"/>
	</g>
	<g>
		
			<radialGradient id="SVGID_12_" cx="-422.0063" cy="-544.0894" r="126.2881" gradientTransform="matrix(-1.2363 6.7736 -5.7463 -1.3202 -3945.9253 2158.4175)" gradientUnits="userSpaceOnUse">
			<stop  offset="0.5286" style="stop-color:#155CFF"/>
			<stop  offset="0.5884" style="stop-color:#1462FD"/>
			<stop  offset="0.6654" style="stop-color:#1272F8"/>
			<stop  offset="0.7518" style="stop-color:#0F8CF0"/>
			<stop  offset="0.845" style="stop-color:#0AB1E4"/>
			<stop  offset="0.9427" style="stop-color:#04E0D6"/>
			<stop  offset="1" style="stop-color:#00FFCC"/>
		</radialGradient>
		<path fill="url(#SVGID_12_)" d="M-864.161,655.013c-241.042-55.377,147.465-596.371,57.127-841.453
			c-57.746-156.719-200.677-212.528-167.527-394.181c29.929-163.979,408.042-60.317,500.365-174.039
			c169.931-209.295,63.445-26.323,319.479,32.506c395.158,90.786,738.1,220.107,653.081,685.906
			C455.873,196.651,116.849,743.572-40.463,866.445C-197.802,989.319-666.575,700.429-864.161,655.013z"/>
	</g>
	<g>
		
			<radialGradient id="SVGID_13_" cx="-427.3247" cy="-575.0142" r="126.2883" gradientTransform="matrix(-3.1006 5.716 -5.009 -2.7501 -4503.4146 879.2495)" gradientUnits="userSpaceOnUse">
			<stop  offset="0.5286" style="stop-color:#155CFF"/>
			<stop  offset="0.5884" style="stop-color:#1462FD"/>
			<stop  offset="0.6654" style="stop-color:#1272F8"/>
			<stop  offset="0.7518" style="stop-color:#0F8CF0"/>
			<stop  offset="0.845" style="stop-color:#0AB1E4"/>
			<stop  offset="0.9427" style="stop-color:#04E0D6"/>
			<stop  offset="1" style="stop-color:#00FFCC"/>
		</radialGradient>
		<path fill="url(#SVGID_13_)" d="M-1011.777,432.317c-210.116-115.356,309.2-492.708,294.753-736.434
			c-9.219-155.845-127.227-244.779-44.078-398.071c75.063-138.378,399.852,57.587,519.005-18.824
			c219.311-140.623,67.029-6.19,290.211,116.348C392.573-415.551,677.031-206.263,463.805,186.81
			C357.209,383.35-117.412,779.521-300.121,846.353C-482.855,913.179-839.547,526.896-1011.777,432.317z"/>
	</g>
	<g>
		
			<radialGradient id="SVGID_14_" cx="-440.3135" cy="-603.7598" r="126.2883" gradientTransform="matrix(-4.5455 4.2614 -3.9079 -3.8266 -4659.439 -416.3286)" gradientUnits="userSpaceOnUse">
			<stop  offset="0.5286" style="stop-color:#155CFF"/>
			<stop  offset="0.5884" style="stop-color:#1462FD"/>
			<stop  offset="0.6654" style="stop-color:#1272F8"/>
			<stop  offset="0.7518" style="stop-color:#0F8CF0"/>
			<stop  offset="0.845" style="stop-color:#0AB1E4"/>
			<stop  offset="0.9427" style="stop-color:#04E0D6"/>
			<stop  offset="1" style="stop-color:#00FFCC"/>
		</radialGradient>
		<path fill="url(#SVGID_14_)" d="M-1086.342,192.948c-163.929-160.512,431.122-355.867,487.438-577.643
			c36.027-141.804-49.119-253.533,72.777-367.817c110.04-103.163,358.375,160.726,491.991,124.991
			c245.924-65.755,64.618,12.783,238.738,183.284C473.344-181.097,680.049,83.68,367.467,376.723
			c-156.275,146.53-714.815,370.917-905.271,380.724C-728.283,767.24-951.977,324.538-1086.342,192.948z"/>
	</g>
	<g>
		
			<radialGradient id="SVGID_15_" cx="-460.4741" cy="-627.4668" r="126.2883" gradientTransform="matrix(-5.4831 2.5666 -2.5671 -4.4878 -4434.3618 -1616.8638)" gradientUnits="userSpaceOnUse">
			<stop  offset="0.5286" style="stop-color:#155CFF"/>
			<stop  offset="0.5884" style="stop-color:#1462FD"/>
			<stop  offset="0.6654" style="stop-color:#1272F8"/>
			<stop  offset="0.7518" style="stop-color:#0F8CF0"/>
			<stop  offset="0.845" style="stop-color:#0AB1E4"/>
			<stop  offset="0.9427" style="stop-color:#04E0D6"/>
			<stop  offset="1" style="stop-color:#00FFCC"/>
		</radialGradient>
		<path fill="url(#SVGID_15_)" d="M-1087.638-41.361c-107.684-188.249,506.205-200.252,622.575-383.074
			c74.424-116.892,26.621-240.015,173.663-308.848C-158.663-795.417-1.474-491.711,134.04-487.139
			c249.415,8.429,56.919,29.081,171.293,229.043c176.533,308.611,294.435,601.734-82.624,778.228
			C34.192,608.39-553.788,656.317-735.162,613.041C-916.553,569.746-999.382,112.961-1087.638-41.361z"/>
	</g>
	<g>
		
			<radialGradient id="SVGID_16_" cx="-486.5894" cy="-643.4722" r="126.2883" gradientTransform="matrix(-5.8764 0.7957 -1.1204 -4.7124 -3879.2104 -2628.3442)" gradientUnits="userSpaceOnUse">
			<stop  offset="0.5286" style="stop-color:#155CFF"/>
			<stop  offset="0.5884" style="stop-color:#1462FD"/>
			<stop  offset="0.6654" style="stop-color:#1272F8"/>
			<stop  offset="0.7518" style="stop-color:#0F8CF0"/>
			<stop  offset="0.845" style="stop-color:#0AB1E4"/>
			<stop  offset="0.9427" style="stop-color:#04E0D6"/>
			<stop  offset="1" style="stop-color:#00FFCC"/>
		</radialGradient>
		<path fill="url(#SVGID_16_)" d="M-1021.691-251.126c-47-197.671,531.994-40.656,693.501-172.255
			c103.282-84.135,93.756-207.237,251.346-228.578c142.26-19.262,202.578,295.124,328.319,336.239
			c231.424,75.684,45.029,41.543,94.944,251.51c77.049,324.056,103.567,618.249-300.535,672.959
			c-202.044,27.369-767.043-90.459-924.687-178.696C-1036.457,341.794-983.181-89.087-1021.691-251.126z"/>
	</g>
	<g>
		
			<radialGradient id="SVGID_17_" cx="-516.7808" cy="-649.5884" r="126.2883" gradientTransform="matrix(-5.7375 -0.8946 0.3003 -4.5178 -3068.8042 -3380.6489)" gradientUnits="userSpaceOnUse">
			<stop  offset="0.5286" style="stop-color:#155CFF"/>
			<stop  offset="0.5884" style="stop-color:#1462FD"/>
			<stop  offset="0.6654" style="stop-color:#1272F8"/>
			<stop  offset="0.7518" style="stop-color:#0F8CF0"/>
			<stop  offset="0.845" style="stop-color:#0AB1E4"/>
			<stop  offset="0.9427" style="stop-color:#04E0D6"/>
			<stop  offset="1" style="stop-color:#00FFCC"/>
		</radialGradient>
		<path fill="url(#SVGID_17_)" d="M-899.735-420.583c12.595-189.51,510.427,109.028,699.569,35.544
			c120.948-46.974,147.304-159.599,301.169-135.611c138.897,21.657,105.334,319.118,211.438,390.223
			C507.72,0.449,342.75-80.996,329.365,120.3c-20.649,310.676-80.114,580.854-474.664,519.332
			c-197.272-30.746-693.216-290.437-815.722-412.374C-1083.533,105.3-910.077-265.24-899.735-420.583z"/>
	</g>
	<g>
		
			<radialGradient id="SVGID_18_" cx="-548.6235" cy="-644.3457" r="126.2881" gradientTransform="matrix(-5.1228 -2.3673 1.5765 -3.9557 -2093.3628 -3831.5747)" gradientUnits="userSpaceOnUse">
			<stop  offset="0.5286" style="stop-color:#155CFF"/>
			<stop  offset="0.5884" style="stop-color:#1462FD"/>
			<stop  offset="0.6654" style="stop-color:#1272F8"/>
			<stop  offset="0.7518" style="stop-color:#0F8CF0"/>
			<stop  offset="0.845" style="stop-color:#0AB1E4"/>
			<stop  offset="0.9427" style="stop-color:#04E0D6"/>
			<stop  offset="1" style="stop-color:#00FFCC"/>
		</radialGradient>
		<path fill="url(#SVGID_18_)" d="M-736.822-538.71c66.129-165.932,447.301,236.915,645.695,222.921
			c126.86-8.935,183.853-102.391,321.233-38.909c124.017,57.309,7.285,313.991,86.382,406.533
			c145.57,170.329,14.247,52.461-56.002,228.711C152.075,552.567,18.88,777.789-333.397,614.996
			c-176.141-81.384-566.677-448.994-646.581-591.448C-1059.881-118.927-791.045-402.699-736.822-538.71z"/>
	</g>
	<g>
		
			<radialGradient id="SVGID_19_" cx="-579.3159" cy="-627.1909" r="126.2883" gradientTransform="matrix(-4.1243 -3.5155 2.6119 -3.1046 -1049.5776 -3968.0532)" gradientUnits="userSpaceOnUse">
			<stop  offset="0.5286" style="stop-color:#155CFF"/>
			<stop  offset="0.5884" style="stop-color:#1462FD"/>
			<stop  offset="0.6654" style="stop-color:#1272F8"/>
			<stop  offset="0.7518" style="stop-color:#0F8CF0"/>
			<stop  offset="0.845" style="stop-color:#0AB1E4"/>
			<stop  offset="0.9427" style="stop-color:#04E0D6"/>
			<stop  offset="1" style="stop-color:#00FFCC"/>
		</radialGradient>
		<path fill="url(#SVGID_19_)" d="M-550.222-599.77C-440.66-730.001-198.763-265.807-8.746-224.104
			c121.5,26.679,201.721-41.274,312.327,53.001c99.846,85.105-83.172,282.618-35.541,386.939
			c87.657,192.006-1.68,50.78-118.062,189.107C-29.636,618.437-219.07,783.333-502.687,541.58
			C-644.5,420.713-905.277-14.547-939.359-163.698C-973.434-312.867-640.046-493.028-550.222-599.77z"/>
	</g>
	<g>
		
			<radialGradient id="SVGID_20_" cx="-605.9058" cy="-598.6294" r="126.2878" gradientTransform="matrix(-2.8591 -4.2689 3.3387 -2.061 -31.8511 -3804.8247)" gradientUnits="userSpaceOnUse">
			<stop  offset="0.5286" style="stop-color:#155CFF"/>
			<stop  offset="0.5884" style="stop-color:#1462FD"/>
			<stop  offset="0.6654" style="stop-color:#1272F8"/>
			<stop  offset="0.7518" style="stop-color:#0F8CF0"/>
			<stop  offset="0.845" style="stop-color:#0AB1E4"/>
			<stop  offset="0.9427" style="stop-color:#04E0D6"/>
			<stop  offset="1" style="stop-color:#00FFCC"/>
		</radialGradient>
		<path fill="url(#SVGID_20_)" d="M-357.773-603.355c140.05-86.456,233.785,394.512,399.982,483.704
			C148.475-62.608,243.165-101.42,319.84,13.06c69.217,103.345-158.987,229.862-144.233,336.112
			c27.146,195.556-16.13,44.926-164.895,136.754c-229.594,141.729-454.464,237.342-651.074-56.22
			c-98.313-146.773-218.042-607.04-207.244-749.654C-836.794-462.578-472.584-532.499-357.773-603.355z"/>
	</g>
	<g>
		
			<radialGradient id="SVGID_21_" cx="-625.5542" cy="-560.2642" r="126.2881" gradientTransform="matrix(-1.4569 -4.5965 3.721 -0.9297 875.5356 -3380.8521)" gradientUnits="userSpaceOnUse">
			<stop  offset="0.5286" style="stop-color:#155CFF"/>
			<stop  offset="0.5884" style="stop-color:#1462FD"/>
			<stop  offset="0.6654" style="stop-color:#1272F8"/>
			<stop  offset="0.7518" style="stop-color:#0F8CF0"/>
			<stop  offset="0.845" style="stop-color:#0AB1E4"/>
			<stop  offset="0.9427" style="stop-color:#04E0D6"/>
			<stop  offset="1" style="stop-color:#00FFCC"/>
		</radialGradient>
		<path fill="url(#SVGID_21_)" d="M-176.314-553.973C-20.228-592.975-70.21-137.5,60.042-12.374
			c83.279,80.019,183.181,71.204,222.254,194.471C317.568,293.374,67.35,344.092,50.728,443.084
			c-30.603,182.194-28,35.745-193.797,77.166c-255.881,63.935-494.115,87.942-594.302-228.148
			c-50.103-158.041-30.425-602.116,20.578-726.626C-665.774-559.044-304.266-522.017-176.314-553.973z"/>
	</g>
	<g>
		
			<radialGradient id="SVGID_22_" cx="-635.8032" cy="-514.7544" r="126.2883" gradientTransform="matrix(-0.0484 -4.5062 3.7551 0.1858 1604.731 -2753.9878)" gradientUnits="userSpaceOnUse">
			<stop  offset="0.5286" style="stop-color:#155CFF"/>
			<stop  offset="0.5884" style="stop-color:#1462FD"/>
			<stop  offset="0.6654" style="stop-color:#1272F8"/>
			<stop  offset="0.7518" style="stop-color:#0F8CF0"/>
			<stop  offset="0.845" style="stop-color:#0AB1E4"/>
			<stop  offset="0.9427" style="stop-color:#04E0D6"/>
			<stop  offset="1" style="stop-color:#00FFCC"/>
		</radialGradient>
		<path fill="url(#SVGID_22_)" d="M-20.341-460.255c157.519,7.792-19.899,401.211,66.354,548.633
			c55.143,94.272,151.332,113.692,152.632,234.537c1.173,109.091-247.958,86.049-291.917,169.98
			c-80.916,154.473-36.498,24.296-203.814,16.013c-258.229-12.777-488.467-56.417-491.793-366.296
			c-1.673-154.938,144.065-546.45,227.572-643.794C-477.783-598.531-149.463-466.658-20.341-460.255z"/>
	</g>
	<g>
		
			<radialGradient id="SVGID_23_" cx="-621.7441" cy="-417.2339" r="126.2883" gradientTransform="matrix(2.3267 -3.2707 2.9091 2.0129 2363.5073 -1177.979)" gradientUnits="userSpaceOnUse">
			<stop  offset="0.5286" style="stop-color:#155CFF"/>
			<stop  offset="0.5884" style="stop-color:#1462FD"/>
			<stop  offset="0.6654" style="stop-color:#1272F8"/>
			<stop  offset="0.7518" style="stop-color:#0F8CF0"/>
			<stop  offset="0.845" style="stop-color:#0AB1E4"/>
			<stop  offset="0.9427" style="stop-color:#04E0D6"/>
			<stop  offset="1" style="stop-color:#00FFCC"/>
		</radialGradient>
		<path fill="url(#SVGID_23_)" d="M174.72-188.311C296.752-103.876-51.818,90.785-60.141,240.156
			c-5.334,95.512,61.49,157.635-0.904,245.349c-56.325,79.182-243.705-62.083-322.959-23.61
			c-145.874,70.801-41.977-0.759-171.597-90.451c-200.053-138.42-361.494-285.07-201.495-509.989
			c79.991-112.463,402.193-321.603,520.155-349.948C-118.963-516.833,74.694-257.535,174.72-188.311z"/>
	</g>
	<g>
		
			<radialGradient id="SVGID_24_" cx="-596.604" cy="-373.9966" r="126.2883" gradientTransform="matrix(3.1189 -2.2875 2.1505 2.5939 2368.3521 -378.6079)" gradientUnits="userSpaceOnUse">
			<stop  offset="0.5286" style="stop-color:#155CFF"/>
			<stop  offset="0.5884" style="stop-color:#1462FD"/>
			<stop  offset="0.6654" style="stop-color:#1272F8"/>
			<stop  offset="0.7518" style="stop-color:#0F8CF0"/>
			<stop  offset="0.845" style="stop-color:#0AB1E4"/>
			<stop  offset="0.9427" style="stop-color:#04E0D6"/>
			<stop  offset="1" style="stop-color:#00FFCC"/>
		</radialGradient>
		<path fill="url(#SVGID_24_)" d="M203.959-37.53C294.168,71.278-88.432,150.01-139.052,281.235
			c-32.377,83.905,12.466,157.687-71.173,219.032c-75.504,55.377-210.691-122.077-296.024-109.349
			c-157.059,23.419-39.138-12.148-134.954-127.727c-147.884-178.375-257.208-353.555-42.73-510.856
			c107.232-78.656,469.262-177.533,587.982-170.635C22.782-411.391,130.021-126.73,203.959-37.53z"/>
	</g>
	<g>
		
			<radialGradient id="SVGID_25_" cx="-560.6558" cy="-340.4443" r="126.2886" gradientTransform="matrix(3.5798 -1.1922 1.2727 2.9059 2143.7642 337.146)" gradientUnits="userSpaceOnUse">
			<stop  offset="0.5286" style="stop-color:#155CFF"/>
			<stop  offset="0.5884" style="stop-color:#1462FD"/>
			<stop  offset="0.6654" style="stop-color:#1272F8"/>
			<stop  offset="0.7518" style="stop-color:#0F8CF0"/>
			<stop  offset="0.845" style="stop-color:#0AB1E4"/>
			<stop  offset="0.9427" style="stop-color:#04E0D6"/>
			<stop  offset="1" style="stop-color:#00FFCC"/>
		</radialGradient>
		<path fill="url(#SVGID_25_)" d="M188.152,105.219c53.388,121.896-327.888,87.718-412.961,191.168
			c-54.406,66.143-33.512,144.338-129.512,176.311c-86.662,28.862-162.543-166.675-246.196-178.617
			c-153.963-21.985-33.211-21.551-89.915-151.031c-87.52-199.83-139.803-386.268,106.369-468.25
			c123.083-40.997,490.847-30.445,600.176,8.16C125.453-278.422,144.4,5.294,188.152,105.219z"/>
	</g>
</g>
</svg>
