<?xml version="1.0" encoding="utf-8"?>
<!-- Generator: Adobe Illustrator 16.0.0, SVG Export Plug-In . SVG Version: 6.00 Build 0)  -->
<!DOCTYPE svg PUBLIC "-//W3C//DTD SVG 1.1//EN" "http://www.w3.org/Graphics/SVG/1.1/DTD/svg11.dtd">
<svg version="1.1" id="Layer_1" xmlns="http://www.w3.org/2000/svg" xmlns:xlink="http://www.w3.org/1999/xlink" x="0px" y="0px"
	 width="1020.473px" height="467.717px" viewBox="172.764 175.688 1020.473 467.717"
	 enable-background="new 172.764 175.688 1020.473 467.717" xml:space="preserve">
<g>
	<g>
		
			<radialGradient id="SVGID_1_" cx="-504.8267" cy="-521.0508" r="126.2883" gradientTransform="matrix(0.7133 -11.2042 9.4014 1.1249 4931.4341 -5647.6333)" gradientUnits="userSpaceOnUse">
			<stop  offset="0.5847" style="stop-color:#1599FF"/>
			<stop  offset="0.6548" style="stop-color:#149FFC"/>
			<stop  offset="0.7453" style="stop-color:#11AFF4"/>
			<stop  offset="0.847" style="stop-color:#0BC9E7"/>
			<stop  offset="0.9561" style="stop-color:#03EED4"/>
			<stop  offset="1" style="stop-color:#00FFCC"/>
		</radialGradient>
		<path fill="url(#SVGID_1_)" d="M457.193-1710.519c394.363,47.182-124.343,993.288,65.077,1374.787
			C643.361-91.773,881.47-26.538,862.348,273.932C845.08,545.168,223.337,443.918,97.323,644.683
			c-231.949,369.489-96.215,53.911-515.109,3.781c-646.512-77.356-1216.969-226.441-1167.911-996.919
			c24.501-385.231,463.255-1332.197,691.132-1559.295C-666.648-2134.854,133.921-1749.229,457.193-1710.519z"/>
	</g>
	<g>
		
			<radialGradient id="SVGID_2_" cx="-504.8267" cy="-521.0513" r="126.2883" gradientTransform="matrix(3.8803 -9.8187 8.4919 3.5743 6057.0942 -3671.6646)" gradientUnits="userSpaceOnUse">
			<stop  offset="0.5847" style="stop-color:#1599FF"/>
			<stop  offset="0.6548" style="stop-color:#149FFC"/>
			<stop  offset="0.7453" style="stop-color:#11AFF4"/>
			<stop  offset="0.847" style="stop-color:#0BC9E7"/>
			<stop  offset="0.9561" style="stop-color:#03EED4"/>
			<stop  offset="1" style="stop-color:#00FFCC"/>
		</radialGradient>
		<path fill="url(#SVGID_2_)" d="M733.729-1375.452c356.213,149.927-401.293,853.769-333.055,1246.488
			c43.602,251.124,248.143,374.49,144.088,637.807c-93.937,237.697-647.831-22.682-823.523,122.317
			c-323.375,266.85-105.66,21.893-484.026-137.372c-583.967-245.792-1076.067-534.91-809.224-1210.114
			c133.395-337.604,816.187-1064.06,1094.929-1204.761C-198.301-2061.782,441.74-1498.38,733.729-1375.452z"/>
	</g>
	<g>
		
			<radialGradient id="SVGID_3_" cx="-504.8262" cy="-521.0493" r="126.2883" gradientTransform="matrix(6.4524 -7.7151 6.9371 5.5149 6546.0786 -1598.0552)" gradientUnits="userSpaceOnUse">
			<stop  offset="0.5847" style="stop-color:#1599FF"/>
			<stop  offset="0.6548" style="stop-color:#149FFC"/>
			<stop  offset="0.7453" style="stop-color:#11AFF4"/>
			<stop  offset="0.847" style="stop-color:#0BC9E7"/>
			<stop  offset="0.9561" style="stop-color:#03EED4"/>
			<stop  offset="1" style="stop-color:#00FFCC"/>
		</radialGradient>
		<path fill="url(#SVGID_3_)" d="M896.953-1000.425C1187.947-769.096,275.997-347.027,227.405,22.609
			c-31.103,236.354,125.304,402.501-47.73,609.406C23.47,818.788-421.201,434.727-627.484,516.312
			c-379.67,150.135-105.337-9.305-414.424-255.032c-477.047-379.241-855.545-772.101-411.825-1302.646
			c221.835-265.281,1070.22-727.977,1371.886-777.563C219.854-1868.5,658.434-1190.077,896.953-1000.425z"/>
	</g>
	<g>
		
			<radialGradient id="SVGID_4_" cx="-504.8252" cy="-521.0503" r="126.2883" gradientTransform="matrix(8.261 -5.1323 4.9231 6.8244 6410.145 388.812)" gradientUnits="userSpaceOnUse">
			<stop  offset="0.5847" style="stop-color:#1599FF"/>
			<stop  offset="0.6548" style="stop-color:#149FFC"/>
			<stop  offset="0.7453" style="stop-color:#11AFF4"/>
			<stop  offset="0.847" style="stop-color:#0BC9E7"/>
			<stop  offset="0.9561" style="stop-color:#03EED4"/>
			<stop  offset="1" style="stop-color:#00FFCC"/>
		</radialGradient>
		<path fill="url(#SVGID_4_)" d="M942.487-620.648C1149.001-334.387,173.018-206.352,21.508,110.73
			c-96.909,202.741,2.106,393.971-219.43,531.611C-397.908,766.585-704.724,301.83-921.511,318.38
			c-398.996,30.439-96.092-37.099-315.443-341.172c-338.552-469.294-580.805-923.833-12.719-1276.76
			c284.022-176.478,1212.055-358.191,1509.096-320.08C556.495-1581.498,773.224-855.322,942.487-620.648z"/>
	</g>
	<g>
		
			<radialGradient id="SVGID_5_" cx="-504.8247" cy="-521.0498" r="126.2883" gradientTransform="matrix(9.2162 -2.3297 2.6595 7.4444 5713.188 2127.4292)" gradientUnits="userSpaceOnUse">
			<stop  offset="0.5847" style="stop-color:#1599FF"/>
			<stop  offset="0.6548" style="stop-color:#149FFC"/>
			<stop  offset="0.7453" style="stop-color:#11AFF4"/>
			<stop  offset="0.847" style="stop-color:#0BC9E7"/>
			<stop  offset="0.9561" style="stop-color:#03EED4"/>
			<stop  offset="1" style="stop-color:#00FFCC"/>
		</radialGradient>
		<path fill="url(#SVGID_5_)" d="M876.319-268.784C987.883,43.489,36.147-108.762-196.79,133.229
			c-148.972,154.718-110.953,352.684-358.107,415.166c-223.111,56.397-377.551-442.811-585.544-487.255
			c-382.805-81.819-79.458-59.413-197.951-391.113c-182.893-511.936-279.73-984.37,354.044-1144.57
			c316.871-80.118,1239.038,11.057,1506.606,126.283C789.847-1233.005,784.892-524.772,876.319-268.784z"/>
	</g>
	<g>
		
			<radialGradient id="SVGID_6_" cx="-504.8252" cy="-521.0498" r="126.2883" gradientTransform="matrix(9.3085 0.4362 0.3596 7.3801 4561.395 3490.8511)" gradientUnits="userSpaceOnUse">
			<stop  offset="0.5847" style="stop-color:#1599FF"/>
			<stop  offset="0.6548" style="stop-color:#149FFC"/>
			<stop  offset="0.7453" style="stop-color:#11AFF4"/>
			<stop  offset="0.847" style="stop-color:#0BC9E7"/>
			<stop  offset="0.9561" style="stop-color:#03EED4"/>
			<stop  offset="1" style="stop-color:#00FFCC"/>
		</radialGradient>
		<path fill="url(#SVGID_6_)" d="M713.424,27.613C728.512,337.189-120.15-58.941-407.905,93.688
			c-184.017,97.572-205.117,284.891-454.747,273.2c-225.345-10.559-227.048-498.922-409.313-595.477
			c-335.448-177.724-57.466-74.812-73.481-403.644c-24.731-507.513,19.897-956.208,660.014-926.21
			c320.049,14.978,1158.496,348.442,1376.327,524.536C908.736-857.781,701.083-226.157,713.424,27.613z"/>
	</g>
	<g>
		
			<radialGradient id="SVGID_7_" cx="-504.8242" cy="-521.0508" r="126.2883" gradientTransform="matrix(8.6022 2.9333 -1.7783 6.6942 3090.7192 4394.6851)" gradientUnits="userSpaceOnUse">
			<stop  offset="0.5847" style="stop-color:#1599FF"/>
			<stop  offset="0.6548" style="stop-color:#149FFC"/>
			<stop  offset="0.7453" style="stop-color:#11AFF4"/>
			<stop  offset="0.847" style="stop-color:#0BC9E7"/>
			<stop  offset="0.9561" style="stop-color:#03EED4"/>
			<stop  offset="1" style="stop-color:#00FFCC"/>
		</radialGradient>
		<path fill="url(#SVGID_7_)" d="M475.744,248.005C401.152,528.809-280.967-57.122-594.502,0.662
			c-200.494,36.923-273.969,198.572-504.66,119.913c-208.247-71.011-69.859-507.947-213.066-644.046
			c-263.559-250.499-32.434-82.564,46.807-380.832c122.286-460.344,292.741-849.168,884.286-647.448
			c295.77,100.838,986.275,627.971,1140.028,844.874C912.647-489.941,536.914,17.829,475.744,248.005z"/>
	</g>
	<g>
		
			<radialGradient id="SVGID_8_" cx="-504.8237" cy="-521.0508" r="126.2883" gradientTransform="matrix(7.2242 4.9721 -3.5861 5.497 1452.8052 4800.6304)" gradientUnits="userSpaceOnUse">
			<stop  offset="0.5847" style="stop-color:#1599FF"/>
			<stop  offset="0.6548" style="stop-color:#149FFC"/>
			<stop  offset="0.7453" style="stop-color:#11AFF4"/>
			<stop  offset="0.847" style="stop-color:#0BC9E7"/>
			<stop  offset="0.9561" style="stop-color:#03EED4"/>
			<stop  offset="1" style="stop-color:#00FFCC"/>
		</radialGradient>
		<path fill="url(#SVGID_8_)" d="M189.732,380.034C39.309,610.619-432.264-99.438-742.783-133.466
			C-941.34-155.25-1056.563-30.854-1250.3-164.19c-174.888-120.369,80.101-473.063-15.152-633.831
			c-175.297-295.897-6.742-82.653,153.046-327.576c246.602-378.015,517.864-678.947,1014.649-337.025
			c248.396,170.94,744.685,830.738,826.663,1066.606C810.876-160.119,313.06,191.03,189.732,380.034z"/>
	</g>
	<g>
		
			<radialGradient id="SVGID_9_" cx="-504.8242" cy="-521.0518" r="126.2883" gradientTransform="matrix(5.3479 6.4178 -4.9378 3.933 -199.187 4715.896)" gradientUnits="userSpaceOnUse">
			<stop  offset="0.5847" style="stop-color:#1599FF"/>
			<stop  offset="0.6548" style="stop-color:#149FFC"/>
			<stop  offset="0.7453" style="stop-color:#11AFF4"/>
			<stop  offset="0.847" style="stop-color:#0BC9E7"/>
			<stop  offset="0.9561" style="stop-color:#03EED4"/>
			<stop  offset="1" style="stop-color:#00FFCC"/>
		</radialGradient>
		<path fill="url(#SVGID_9_)" d="M-116.264,419.883c-207.124,164.982-445.719-598.481-727.094-713.742
			c-179.914-73.724-323.598,5.97-467.018-166.136c-129.464-155.365,210.697-400.909,167.475-570.622
			c-79.535-312.355,17.37-75.713,237.384-250.949c339.556-270.466,680.139-465.301,1047.893-23.967
			C326.263-1084.883,602.437-359.585,611.687-126.38C620.921,106.85,53.539,284.661-116.264,419.883z"/>
	</g>
	<g>
		
			<radialGradient id="SVGID_10_" cx="-504.8242" cy="-521.0522" r="126.2883" gradientTransform="matrix(3.1743 7.1971 -5.7568 2.1659 -1723.7183 4188.7534)" gradientUnits="userSpaceOnUse">
			<stop  offset="0.5847" style="stop-color:#1599FF"/>
			<stop  offset="0.6548" style="stop-color:#149FFC"/>
			<stop  offset="0.7453" style="stop-color:#11AFF4"/>
			<stop  offset="0.847" style="stop-color:#0BC9E7"/>
			<stop  offset="0.9561" style="stop-color:#03EED4"/>
			<stop  offset="1" style="stop-color:#00FFCC"/>
		</radialGradient>
		<path fill="url(#SVGID_10_)" d="M-414.574,371.886c-241.48,90.856-246.337-656.678-477.104-836.576
			c-147.547-115.05-305.102-83.085-390.233-276.092c-76.846-174.232,312.456-300.738,320.579-464.228
			c14.965-300.898,37.988-62.922,294.492-159.42c395.878-148.945,771.04-230.016,989.326,264.91
			C431.644-852.07,482.672-128.377,424.5,82.576C366.304,293.547-216.615,297.43-414.574,371.886z"/>
	</g>
	<g>
		
			<radialGradient id="SVGID_11_" cx="-504.8247" cy="-521.0522" r="126.2881" gradientTransform="matrix(0.9131 7.2997 -6.0181 0.3627 -3001.9604 3301.062)" gradientUnits="userSpaceOnUse">
			<stop  offset="0.5847" style="stop-color:#1599FF"/>
			<stop  offset="0.6548" style="stop-color:#149FFC"/>
			<stop  offset="0.7453" style="stop-color:#11AFF4"/>
			<stop  offset="0.847" style="stop-color:#0BC9E7"/>
			<stop  offset="0.9561" style="stop-color:#03EED4"/>
			<stop  offset="1" style="stop-color:#00FFCC"/>
		</radialGradient>
		<path fill="url(#SVGID_11_)" d="M-680.498,247.477c-252.443,15.219-42.725-654.211-207.515-878.05
			c-105.355-143.142-262.233-157.624-286.726-353.385c-22.105-176.717,379.147-183.405,433.625-327.303
			c100.28-264.837,53.652-45.856,321.798-62.013c413.851-24.947,788.823,5.108,851.613,507.09
			C463.71-615.2,304.114,45.538,189.106,218.181C74.073,390.833-473.558,235.024-680.498,247.477z"/>
	</g>
	<g>
		
			<radialGradient id="SVGID_12_" cx="-504.8242" cy="-521.0518" r="126.2883" gradientTransform="matrix(-1.2363 6.7736 -5.7463 -1.3202 -3945.9253 2158.4175)" gradientUnits="userSpaceOnUse">
			<stop  offset="0.5847" style="stop-color:#1599FF"/>
			<stop  offset="0.6548" style="stop-color:#149FFC"/>
			<stop  offset="0.7453" style="stop-color:#11AFF4"/>
			<stop  offset="0.847" style="stop-color:#0BC9E7"/>
			<stop  offset="0.9561" style="stop-color:#03EED4"/>
			<stop  offset="1" style="stop-color:#00FFCC"/>
		</radialGradient>
		<path fill="url(#SVGID_12_)" d="M-894.155,63.626c-241.042-55.377,147.465-596.372,57.127-841.454
			c-57.746-156.719-200.677-212.528-167.527-394.181c29.929-163.979,408.042-60.317,500.365-174.039
			c169.931-209.295,63.445-26.323,319.479,32.506c395.158,90.786,738.1,220.107,653.081,685.906
			C425.878-394.737,86.855,152.184-70.458,275.057C-227.796,397.931-696.569,109.041-894.155,63.626z"/>
	</g>
	<g>
		
			<radialGradient id="SVGID_13_" cx="-504.8242" cy="-521.0532" r="126.2883" gradientTransform="matrix(-3.1006 5.716 -5.009 -2.7501 -4503.4146 879.2495)" gradientUnits="userSpaceOnUse">
			<stop  offset="0.5847" style="stop-color:#1599FF"/>
			<stop  offset="0.6548" style="stop-color:#149FFC"/>
			<stop  offset="0.7453" style="stop-color:#11AFF4"/>
			<stop  offset="0.847" style="stop-color:#0BC9E7"/>
			<stop  offset="0.9561" style="stop-color:#03EED4"/>
			<stop  offset="1" style="stop-color:#00FFCC"/>
		</radialGradient>
		<path fill="url(#SVGID_13_)" d="M-1041.771-159.071c-210.116-115.356,309.2-492.708,294.753-736.434
			c-9.219-155.845-127.227-244.779-44.078-398.071c75.063-138.378,399.852,57.587,519.005-18.824
			c219.311-140.623,67.029-6.19,290.211,116.348c344.459,189.113,628.917,398.401,415.691,791.475
			c-106.596,196.54-581.217,592.71-763.926,659.543C-512.849,321.791-869.542-64.492-1041.771-159.071z"/>
	</g>
</g>
</svg>
